<?xml version="1.0" encoding="UTF-8" standalone="no"?>
<!DOCTYPE svg PUBLIC "-//W3C//DTD SVG 1.1//EN" "http://www.w3.org/Graphics/SVG/1.1/DTD/svg11.dtd">
<svg width="100%" height="100%" viewBox="0 0 200 320" version="1.1" xmlns="http://www.w3.org/2000/svg" xmlns:xlink="http://www.w3.org/1999/xlink" xml:space="preserve" style="fill-rule:evenodd;clip-rule:evenodd;stroke-linejoin:round;stroke-miterlimit:1.41421;">
    <g id="Neo" transform="matrix(1,0,0,1,0,-239.75)">
        <g transform="matrix(1,0,0,1,0,245.808)">
            <path d="M36.696,260.967C36.696,261.638 36.429,262.283 35.954,262.758C35.479,263.233 34.834,263.5 34.162,263.5C34.076,263.5 33.99,263.5 33.904,263.5C32.52,263.5 31.399,262.378 31.399,260.995C31.399,254.235 31.399,235.679 31.399,228.937C31.399,227.561 32.513,226.447 33.889,226.447C33.981,226.447 34.034,226.447 34.034,226.447C35.757,226.447 37.587,226.671 39.525,227.118C41.463,227.566 43.44,228.212 45.455,229.056C47.471,229.9 49.482,230.921 51.489,232.118C53.495,233.316 55.438,234.672 57.315,236.188C59.193,237.704 60.959,239.353 62.612,241.136C64.266,242.919 65.748,244.818 67.057,246.834C67.057,246.834 67.057,234.347 67.057,228.918C67.057,227.553 68.163,226.447 69.528,226.447C69.651,226.447 69.773,226.447 69.895,226.447C71.253,226.447 72.354,227.547 72.354,228.905C72.354,235.621 72.354,254.226 72.354,260.995C72.354,262.379 71.232,263.5 69.849,263.5C69.718,263.5 69.586,263.5 69.455,263.5C68.146,263.5 67.052,262.504 66.93,261.201C66.749,259.293 66.313,257.437 65.636,255.632C64.688,253.108 63.422,250.727 61.837,248.487C60.252,246.248 58.426,244.185 56.359,242.299C54.292,240.413 52.135,238.755 49.887,237.325C47.639,235.895 45.378,234.719 43.104,233.798C40.83,232.876 38.694,232.26 36.696,231.95C36.696,231.95 36.696,253.475 36.696,260.967Z" style="fill:white;"/>
        </g>
        <g transform="matrix(1,0,0,1,0,245.808)">
            <path d="M86.539,258.203L86.539,231.744C86.539,231.744 109.387,231.744 117.073,231.744C117.733,231.744 118.366,231.481 118.833,231.015C119.3,230.548 119.562,229.915 119.562,229.255C119.562,229.157 119.562,229.059 119.562,228.962C119.562,228.295 119.297,227.655 118.825,227.183C118.354,226.712 117.714,226.447 117.047,226.447C110.109,226.447 90.752,226.447 83.783,226.447C82.38,226.447 81.242,227.584 81.242,228.988C81.242,235.78 81.242,254.295 81.242,261.018C81.242,262.389 82.353,263.5 83.724,263.5C90.651,263.5 110.142,263.5 117.075,263.5C118.448,263.5 119.562,262.387 119.562,261.013C119.562,260.899 119.562,260.785 119.562,260.672C119.562,260.017 119.302,259.389 118.839,258.926C118.376,258.463 117.748,258.203 117.093,258.203L86.539,258.203Z" style="fill:white;"/>
        </g>
        <g transform="matrix(1,0,0,1,0,5.80785)">
            <path d="M153.024,466.447C155.573,466.447 157.89,466.933 159.974,467.907C162.059,468.88 163.846,470.206 165.336,471.886C166.826,473.565 167.976,475.529 168.786,477.777C169.595,480.025 170,482.424 170,484.973C170,487.54 169.595,489.952 168.786,492.208C167.976,494.465 166.826,496.429 165.336,498.1C163.846,499.771 162.059,501.088 159.974,502.053C157.89,503.018 155.573,503.5 153.024,503.5L140.698,503.5C138.132,503.5 135.798,503.018 133.696,502.053C131.594,501.088 129.799,499.771 128.308,498.1C126.818,496.429 125.669,494.465 124.859,492.208C124.049,489.952 123.645,487.54 123.645,484.973C123.645,482.424 124.049,480.025 124.859,477.777C125.669,475.529 126.818,473.565 128.308,471.886C129.799,470.206 131.594,468.88 133.696,467.907C135.797,466.933 138.132,466.447 140.698,466.447L153.024,466.447ZM153.024,498.203C154.85,498.203 156.482,497.858 157.92,497.169C159.359,496.48 160.582,495.537 161.589,494.34C162.597,493.143 163.368,491.739 163.902,490.128C164.436,488.518 164.703,486.799 164.703,484.973C164.703,483.147 164.436,481.433 163.902,479.831C163.368,478.229 162.597,476.83 161.589,475.632C160.582,474.435 159.359,473.488 157.92,472.79C156.482,472.093 154.85,471.744 153.024,471.744L140.698,471.744C138.872,471.744 137.232,472.093 135.776,472.79C134.32,473.488 133.089,474.435 132.081,475.632C131.073,476.83 130.298,478.229 129.755,479.831C129.213,481.433 128.942,483.147 128.942,484.973C128.942,486.799 129.213,488.518 129.755,490.128C130.298,491.739 131.073,493.143 132.081,494.34C133.089,495.537 134.32,496.48 135.776,497.169C137.232,497.858 138.872,498.203 140.698,498.203L153.024,498.203Z" style="fill:white;"/>
        </g>
        <g transform="matrix(1,0,0,1,0,245.808)">
            <path d="M105.541,245.18C105.541,245.831 105.282,246.456 104.822,246.916C104.361,247.376 103.737,247.635 103.086,247.635C101.532,247.635 95.53,247.635 93.977,247.635C93.326,247.635 92.703,247.376 92.243,246.917C91.784,246.457 91.525,245.834 91.525,245.184C91.525,245.054 91.525,244.924 91.525,244.795C91.525,244.143 91.784,243.518 92.245,243.057C92.706,242.597 93.331,242.338 93.982,242.338C95.523,242.338 101.503,242.338 103.05,242.338C103.71,242.338 104.344,242.6 104.811,243.067C105.278,243.534 105.541,244.168 105.541,244.829C105.541,244.946 105.541,245.063 105.541,245.18Z" style="fill:white;"/>
        </g>
        <g transform="matrix(1.05566,0,0,1,-2.96983,245.109)">
            <path d="M42.382,211.358L38.086,220.958L37.738,220.958L33.418,211.358L33.814,211.358L37.918,220.502L41.986,211.358L42.382,211.358Z" style="fill:white;fill-rule:nonzero;stroke-width:0.97px;stroke:white;"/>
            <path d="M66.622,220.958L65.134,220.958L65.134,220.622L65.698,220.622L65.698,211.694L65.122,211.694L65.122,211.358L66.622,211.358L66.622,211.694L66.07,211.694L66.07,220.622L66.622,220.622L66.622,220.958Z" style="fill:white;fill-rule:nonzero;stroke-width:0.97px;stroke:white;"/>
            <path d="M98.434,216.146C98.434,216.81 98.306,217.434 98.05,218.018C97.794,218.602 97.446,219.112 97.006,219.548C96.566,219.984 96.05,220.328 95.458,220.58C94.866,220.832 94.234,220.958 93.562,220.958L90.142,220.958L90.142,211.358L93.574,211.358C94.246,211.358 94.876,211.484 95.464,211.736C96.052,211.988 96.566,212.33 97.006,212.762C97.446,213.194 97.794,213.702 98.05,214.286C98.306,214.87 98.434,215.49 98.434,216.146ZM98.038,216.146C98.038,215.554 97.922,214.988 97.69,214.448C97.458,213.908 97.144,213.434 96.748,213.026C96.352,212.618 95.884,212.294 95.344,212.054C94.804,211.814 94.23,211.694 93.622,211.694L90.502,211.694L90.502,220.622L93.622,220.622C94.238,220.622 94.814,220.5 95.35,220.256C95.886,220.012 96.354,219.686 96.754,219.278C97.154,218.87 97.468,218.396 97.696,217.856C97.924,217.316 98.038,216.746 98.038,216.146Z" style="fill:white;fill-rule:nonzero;stroke-width:0.97px;stroke:white;"/>
            <path d="M129.274,211.358L125.254,216.782L125.254,220.958L124.894,220.958L124.894,216.782L120.874,211.358L121.318,211.358L125.074,216.434L128.806,211.358L129.274,211.358Z" style="fill:white;fill-rule:nonzero;stroke-width:0.97px;stroke:white;"/>
            <path d="M161.662,216.146C161.662,216.834 161.532,217.48 161.272,218.084C161.012,218.688 160.656,219.216 160.204,219.668C159.752,220.12 159.224,220.478 158.62,220.742C158.016,221.006 157.374,221.138 156.694,221.138C156.006,221.138 155.36,221.006 154.756,220.742C154.152,220.478 153.624,220.12 153.172,219.668C152.72,219.216 152.364,218.688 152.104,218.084C151.844,217.48 151.714,216.834 151.714,216.146C151.714,215.466 151.844,214.824 152.104,214.22C152.364,213.616 152.72,213.088 153.172,212.636C153.624,212.184 154.152,211.828 154.756,211.568C155.36,211.308 156.006,211.178 156.694,211.178C157.374,211.178 158.016,211.308 158.62,211.568C159.224,211.828 159.752,212.184 160.204,212.636C160.656,213.088 161.012,213.616 161.272,214.22C161.532,214.824 161.662,215.466 161.662,216.146ZM161.278,216.146C161.278,215.522 161.158,214.93 160.918,214.37C160.678,213.81 160.35,213.318 159.934,212.894C159.518,212.47 159.032,212.134 158.476,211.886C157.92,211.638 157.326,211.514 156.694,211.514C156.054,211.514 155.456,211.638 154.9,211.886C154.344,212.134 153.858,212.47 153.442,212.894C153.026,213.318 152.698,213.81 152.458,214.37C152.218,214.93 152.098,215.522 152.098,216.146C152.098,216.77 152.218,217.364 152.458,217.928C152.698,218.492 153.026,218.988 153.442,219.416C153.858,219.844 154.344,220.182 154.9,220.43C155.456,220.678 156.054,220.802 156.694,220.802C157.326,220.802 157.92,220.678 158.476,220.43C159.032,220.182 159.518,219.844 159.934,219.416C160.35,218.988 160.678,218.492 160.918,217.928C161.158,217.364 161.278,216.77 161.278,216.146Z" style="fill:white;fill-rule:nonzero;stroke-width:0.97px;stroke:white;"/>
        </g>
    </g>
    <g transform="matrix(0.882632,-4.60675e-16,4.60675e-16,0.882632,10.6683,15.5)">
        <path d="M95.585,48.236C99.068,46.232 103.354,46.232 106.837,48.236C126.547,59.576 146.25,70.952 165.926,82.351C169.403,84.366 171.546,88.077 171.552,92.096C171.586,114.835 171.586,137.586 171.552,160.326C171.546,164.344 169.403,168.056 165.926,170.071C146.25,181.47 126.547,192.845 106.837,204.186C103.354,206.189 99.068,206.189 95.585,204.186C75.875,192.845 56.172,181.47 36.496,170.071C33.019,168.056 30.876,164.344 30.869,160.326C30.835,137.586 30.835,114.835 30.869,92.096C30.876,88.077 33.019,84.366 36.496,82.351C56.172,70.952 75.875,59.576 95.585,48.236Z" style="fill:white;"/>
    </g>
    <g transform="matrix(0.192805,0,0,0.192805,-15.6832,-109.95)">
        <path d="M906.41,1423.09L625,1585.57C609.53,1594.5 590.47,1594.5 575,1585.57L293.59,1423.09L466.795,1323.09L575,1385.57C590.47,1394.5 609.53,1394.5 625,1385.57L733.205,1323.09L906.41,1423.09Z" style="fill:rgb(0,113,187);"/>
    </g>
    <g transform="matrix(0.192805,0,0,0.192805,-11.001,-101.89)">
        <path d="M560,823.094L560,1023.09L451.795,1085.57C436.325,1094.5 426.795,1111 426.795,1128.87L426.795,1253.81L253.59,1353.81L253.59,1028.87C253.59,1011 263.12,994.498 278.59,985.566L560,823.094Z" style="fill:rgb(255,150,0);"/>
    </g>
    <g transform="matrix(0.192805,0,0,0.192805,-20.3646,-101.89)">
        <path d="M640,823.094L921.41,985.566C936.88,994.498 946.41,1011 946.41,1028.87L946.41,1353.81L773.205,1253.81L773.205,1128.87C773.205,1111 763.675,1094.5 748.205,1085.57L640,1023.09L640,823.094Z" style="fill:rgb(0,172,0);"/>
    </g>
    <g transform="matrix(0.120214,0,0,0.120214,27.8717,-19.4848)">
        <path d="M906.41,1423.09L625,1585.57C609.53,1594.5 590.47,1594.5 575,1585.57L293.59,1423.09L466.795,1323.09L575,1385.57C590.47,1394.5 609.53,1394.5 625,1385.57L733.205,1323.09L906.41,1423.09Z" style="fill:rgb(0,153,225);"/>
    </g>
    <g transform="matrix(0.120214,0,0,0.120214,29.6502,-16.4503)">
        <path d="M560,823.094L560,1023.09L451.795,1085.57C436.325,1094.5 426.795,1111 426.795,1128.87L426.795,1253.81L253.59,1353.81L253.59,1028.87C253.59,1011 263.12,994.498 278.59,985.566L560,823.094Z" style="fill:rgb(255,194,0);"/>
    </g>
    <g transform="matrix(0.120214,0,0,0.120214,26.0939,-16.465)">
        <path d="M640,823.094L921.41,985.566C936.88,994.498 946.41,1011 946.41,1028.87L946.41,1353.81L773.205,1253.81L773.205,1128.87C773.205,1111 763.675,1094.5 748.205,1085.57L640,1023.09L640,823.094Z" style="fill:rgb(150,205,43);"/>
    </g>
</svg>
