<?xml version="1.0" standalone="no"?>
<!DOCTYPE svg PUBLIC "-//W3C//DTD SVG 1.1//EN" "http://www.w3.org/Graphics/SVG/1.1/DTD/svg11.dtd">
<svg width="100%" height="100%" viewBox="0 0 32 32" version="1.1" xmlns="http://www.w3.org/2000/svg" xmlns:xlink="http://www.w3.org/1999/xlink" xml:space="preserve" style="fill-rule:evenodd;clip-rule:evenodd;stroke-linecap:round;stroke-linejoin:round;stroke-miterlimit:1.41421;">
    <g id="Room Icon" transform="matrix(-1.18585,3.814e-16,-3.814e-16,-1.18585,694.065,373.114)">
        <g transform="matrix(0.92222,-5.3926e-32,-6.0089e-32,0.92222,90.4884,25.9154)">
            <path d="M520.274,285.828C521.281,285.247 522.521,285.247 523.527,285.828C525.766,287.12 529.774,289.434 532.012,290.727C533.019,291.308 533.639,292.382 533.639,293.544C533.639,296.129 533.639,300.757 533.639,303.342C533.639,304.504 533.019,305.578 532.012,306.159C529.774,307.452 525.766,309.766 523.527,311.058C522.521,311.639 521.281,311.639 520.274,311.058C518.035,309.766 514.028,307.452 511.789,306.159C510.782,305.578 510.162,304.504 510.162,303.342C510.162,300.757 510.162,296.129 510.162,293.544C510.162,292.382 510.782,291.308 511.789,290.727C514.028,289.434 518.035,287.12 520.274,285.828Z" style="fill:none;stroke-width:1.1px;stroke:white;"/>
        </g>
        <g transform="matrix(0.926324,0,0,0.926324,42.0163,22.3453)">
            <path d="M562.153,295.335L571.991,301L575.309,299.081L575.196,308.239L578.944,306.092L579.085,296.923L581.678,295.449L571.991,301L571.991,312.125" style="fill:none;stroke-width:0.9px;stroke:white;stroke-opacity:0.494118;"/>
        </g>
        <g transform="matrix(-1,-3.21625e-16,3.21625e-16,-1,587.394,316.576)">
            <path d="M19.02,10.224L18.973,13.448L22.572,15.532L22.56,12.169L19.02,10.224Z" style="fill:none;stroke-width:0.83px;stroke:white;stroke-opacity:0.501961;"/>
        </g>
    </g>
</svg>
