<?xml version="1.0" encoding="UTF-8" standalone="no"?>
<!DOCTYPE svg PUBLIC "-//W3C//DTD SVG 1.1//EN" "http://www.w3.org/Graphics/SVG/1.1/DTD/svg11.dtd">
<svg width="100%" height="100%" viewBox="0 0 32 32" version="1.1" xmlns="http://www.w3.org/2000/svg" xmlns:xlink="http://www.w3.org/1999/xlink" xml:space="preserve" style="fill-rule:evenodd;clip-rule:evenodd;stroke-linejoin:round;stroke-miterlimit:1.41421;">
    <g id="g3027" transform="matrix(0.16638,0,0,-0.16638,-5.24695,250.333)">
        <path d="M216.57,1356.87C216.57,1358.14 216.455,1359.07 216.223,1359.65C215.876,1360.57 213.648,1362.28 209.54,1364.77C205.433,1367.26 200.311,1370.12 194.179,1373.36L184.981,1378.39C184.402,1378.74 183.302,1379.49 181.682,1380.65C180.062,1381.81 178.616,1382.67 177.343,1383.25C176.07,1383.83 174.856,1384.12 173.698,1384.12C171.614,1384.12 168.895,1382.24 165.54,1378.48C162.185,1374.72 158.886,1370.93 155.645,1367.11C152.406,1363.29 149.86,1361.38 148.008,1361.38C147.197,1361.38 146.243,1361.59 145.144,1361.99C144.045,1362.39 143.149,1362.77 142.455,1363.12C141.761,1363.47 140.776,1364.01 139.504,1364.77C138.232,1365.52 137.421,1366.01 137.073,1366.24C125.618,1372.61 115.754,1379.93 107.48,1388.2C99.206,1396.47 91.887,1406.34 85.523,1417.79C85.292,1418.14 84.799,1418.95 84.047,1420.22C83.295,1421.5 82.745,1422.48 82.399,1423.17C82.051,1423.87 81.675,1424.76 81.271,1425.86C80.866,1426.96 80.664,1427.92 80.664,1428.73C80.664,1430.23 81.85,1432.17 84.222,1434.54C86.594,1436.91 89.198,1439.14 92.033,1441.23C94.868,1443.31 97.472,1445.59 99.844,1448.08C102.216,1450.57 103.402,1452.68 103.402,1454.42C103.402,1455.57 103.113,1456.79 102.535,1458.06C101.956,1459.33 101.088,1460.78 99.931,1462.4C98.774,1464.02 98.022,1465.12 97.675,1465.7C97.328,1466.39 96.46,1468.04 95.071,1470.64C93.682,1473.25 92.236,1475.88 90.732,1478.54C89.227,1481.2 87.694,1483.95 86.131,1486.79C84.569,1489.62 83.123,1491.96 81.792,1493.82C80.461,1495.67 79.507,1496.71 78.928,1496.94C78.349,1497.17 77.424,1497.29 76.151,1497.29C70.596,1497.29 64.753,1496.02 58.621,1493.47C53.298,1491.04 48.669,1485.57 44.735,1477.07C40.801,1468.56 38.833,1461.01 38.833,1454.42C38.833,1452.56 38.978,1450.6 39.268,1448.52C39.557,1446.43 39.846,1444.67 40.136,1443.22C40.426,1441.78 40.946,1439.87 41.698,1437.49C42.45,1435.12 43.029,1433.41 43.434,1432.37C43.839,1431.33 44.562,1429.42 45.603,1426.64C46.645,1423.87 47.281,1422.13 47.513,1421.44C54.456,1402.46 66.982,1383.92 85.091,1365.81C103.201,1347.7 121.744,1335.17 140.721,1328.23C141.415,1328 143.152,1327.36 145.929,1326.32C148.706,1325.28 150.615,1324.56 151.656,1324.15C152.698,1323.75 154.405,1323.17 156.777,1322.41C159.149,1321.66 161.058,1321.14 162.506,1320.85C163.951,1320.57 165.716,1320.27 167.799,1319.99C169.882,1319.7 171.849,1319.55 173.701,1319.55C180.296,1319.55 187.847,1321.52 196.351,1325.45C204.857,1329.39 210.324,1334.02 212.753,1339.34C215.299,1345.47 216.57,1351.32 216.57,1356.87Z" style="fill:white;fill-rule:nonzero;"/>
    </g>
</svg>
