<?xml version="1.0" encoding="UTF-8" standalone="no"?>
<!DOCTYPE svg PUBLIC "-//W3C//DTD SVG 1.1//EN" "http://www.w3.org/Graphics/SVG/1.1/DTD/svg11.dtd">
<svg width="100%" height="100%" viewBox="0 0 32 32" version="1.1" xmlns="http://www.w3.org/2000/svg" xmlns:xlink="http://www.w3.org/1999/xlink" xml:space="preserve" style="fill-rule:evenodd;clip-rule:evenodd;stroke-linejoin:round;stroke-miterlimit:1.41421;">
    <g id="Camera-Icon" transform="matrix(0.833833,1.78899e-32,8.94494e-33,0.752592,-515.341,-9.58813)">
        <path d="M640.8,25.635C641.88,25.635 642.78,26.475 642.78,27.595L642.78,40.405C642.78,41.455 641.88,42.365 640.8,42.365L627.96,42.365C626.88,42.365 625.98,41.525 625.98,40.405L625.98,27.595C625.98,26.545 626.88,25.635 627.96,25.635L640.8,25.635ZM649.98,27.255L649.98,40.095L648.403,40.095L643.603,36.075L643.603,31.275L648.403,27.255L649.98,27.255Z" style="fill:rgb(0,234,63);"/>
    </g>
    <path d="M16.207,0.001L16.413,0.005L16.618,0.012L16.823,0.021L17.027,0.032L17.23,0.047L17.433,0.063L17.635,0.083L17.836,0.104L18.037,0.129L18.236,0.155L18.435,0.184L18.633,0.216L18.831,0.25L19.027,0.287L19.223,0.325L19.418,0.366L19.612,0.41L19.805,0.456L19.997,0.504L20.188,0.555L20.378,0.607L20.567,0.662L20.756,0.72L20.943,0.779L21.129,0.841L21.315,0.905L21.499,0.972L21.682,1.04L21.864,1.111L22.045,1.183L22.225,1.258L22.404,1.335L22.582,1.414L22.759,1.496L22.934,1.579L23.108,1.664L23.281,1.751L23.453,1.841L23.624,1.932L23.793,2.026L23.961,2.121L24.128,2.218L24.294,2.318L24.458,2.419L24.621,2.522L24.783,2.627L24.943,2.734L25.102,2.843L25.26,2.954L25.416,3.066L25.571,3.18L25.724,3.296L25.876,3.414L26.026,3.534L26.175,3.656L26.322,3.779L26.468,3.904L26.613,4.03L26.756,4.159L26.897,4.289L27.037,4.42L27.175,4.554L27.311,4.689L27.446,4.825L27.58,4.963L27.711,5.103L27.841,5.244L27.97,5.387L28.096,5.532L28.221,5.678L28.344,5.825L28.466,5.974L28.586,6.124L28.704,6.276L28.82,6.429L28.934,6.584L29.046,6.74L29.157,6.898L29.266,7.057L29.373,7.217L29.478,7.379L29.581,7.542L29.682,7.706L29.782,7.872L29.879,8.039L29.974,8.207L30.068,8.376L30.159,8.547L30.249,8.719L30.336,8.892L30.421,9.066L30.504,9.241L30.586,9.418L30.665,9.596L30.742,9.775L30.817,9.955L30.889,10.136L30.96,10.318L31.028,10.501L31.095,10.685L31.159,10.871L31.221,11.057L31.28,11.244L31.338,11.433L31.393,11.622L31.445,11.812L31.496,12.003L31.544,12.195L31.59,12.388L31.634,12.582L31.675,12.777L31.713,12.973L31.75,13.169L31.784,13.367L31.816,13.565L31.845,13.764L31.871,13.963L31.896,14.164L31.917,14.365L31.937,14.567L31.953,14.77L31.968,14.973L31.979,15.177L31.988,15.382L31.995,15.587L31.999,15.793L32,16L31.999,16.207L31.995,16.413L31.988,16.618L31.979,16.823L31.968,17.027L31.953,17.23L31.937,17.433L31.917,17.635L31.896,17.836L31.871,18.037L31.845,18.236L31.816,18.435L31.784,18.633L31.75,18.831L31.713,19.027L31.675,19.223L31.634,19.418L31.59,19.612L31.544,19.805L31.496,19.997L31.445,20.188L31.393,20.378L31.338,20.567L31.28,20.756L31.221,20.943L31.159,21.129L31.095,21.315L31.028,21.499L30.96,21.682L30.889,21.864L30.817,22.045L30.742,22.225L30.665,22.404L30.586,22.582L30.504,22.759L30.421,22.934L30.336,23.108L30.249,23.281L30.159,23.453L30.068,23.624L29.974,23.793L29.879,23.961L29.782,24.128L29.682,24.294L29.581,24.458L29.478,24.621L29.373,24.783L29.266,24.943L29.157,25.102L29.046,25.26L28.934,25.416L28.82,25.571L28.704,25.724L28.586,25.876L28.466,26.026L28.344,26.175L28.221,26.322L28.096,26.468L27.97,26.613L27.841,26.756L27.711,26.897L27.58,27.037L27.446,27.175L27.311,27.311L27.175,27.446L27.037,27.58L26.897,27.711L26.756,27.841L26.613,27.97L26.468,28.096L26.322,28.221L26.175,28.344L26.026,28.466L25.876,28.586L25.724,28.704L25.571,28.82L25.416,28.934L25.26,29.046L25.102,29.157L24.943,29.266L24.783,29.373L24.621,29.478L24.458,29.581L24.294,29.682L24.128,29.782L23.961,29.879L23.793,29.974L23.624,30.068L23.453,30.159L23.281,30.249L23.108,30.336L22.934,30.421L22.759,30.504L22.582,30.586L22.404,30.665L22.225,30.742L22.045,30.817L21.864,30.889L21.682,30.96L21.499,31.028L21.315,31.095L21.129,31.159L20.943,31.221L20.756,31.28L20.567,31.338L20.378,31.393L20.188,31.445L19.997,31.496L19.805,31.544L19.612,31.59L19.418,31.634L19.223,31.675L19.027,31.713L18.831,31.75L18.633,31.784L18.435,31.816L18.236,31.845L18.037,31.871L17.836,31.896L17.635,31.917L17.433,31.937L17.23,31.953L17.027,31.968L16.823,31.979L16.618,31.988L16.413,31.995L16.207,31.999L16,32L15.793,31.999L15.587,31.995L15.382,31.988L15.177,31.979L14.973,31.968L14.77,31.953L14.567,31.937L14.365,31.917L14.164,31.896L13.963,31.871L13.764,31.845L13.565,31.816L13.367,31.784L13.169,31.75L12.973,31.713L12.777,31.675L12.582,31.634L12.388,31.59L12.195,31.544L12.003,31.496L11.812,31.445L11.622,31.393L11.433,31.338L11.244,31.28L11.057,31.221L10.871,31.159L10.685,31.095L10.501,31.028L10.318,30.96L10.136,30.889L9.955,30.817L9.775,30.742L9.596,30.665L9.418,30.586L9.241,30.504L9.066,30.421L8.892,30.336L8.719,30.249L8.547,30.159L8.376,30.068L8.207,29.974L8.039,29.879L7.872,29.782L7.706,29.682L7.542,29.581L7.379,29.478L7.217,29.373L7.057,29.266L6.898,29.157L6.74,29.046L6.584,28.934L6.429,28.82L6.276,28.704L6.124,28.586L5.974,28.466L5.825,28.344L5.678,28.221L5.532,28.096L5.387,27.97L5.244,27.841L5.103,27.711L4.963,27.58L4.825,27.446L4.689,27.311L4.554,27.175L4.42,27.037L4.289,26.897L4.159,26.756L4.03,26.613L3.904,26.468L3.779,26.322L3.656,26.175L3.534,26.026L3.414,25.876L3.296,25.724L3.18,25.571L3.066,25.416L2.954,25.26L2.843,25.102L2.734,24.943L2.627,24.783L2.522,24.621L2.419,24.458L2.318,24.294L2.218,24.128L2.121,23.961L2.026,23.793L1.932,23.624L1.841,23.453L1.751,23.281L1.664,23.108L1.579,22.934L1.496,22.759L1.414,22.582L1.335,22.404L1.258,22.225L1.183,22.045L1.111,21.864L1.04,21.682L0.972,21.499L0.905,21.315L0.841,21.129L0.779,20.943L0.72,20.756L0.662,20.567L0.607,20.378L0.555,20.188L0.504,19.997L0.456,19.805L0.41,19.612L0.366,19.418L0.325,19.223L0.287,19.027L0.25,18.831L0.216,18.633L0.184,18.435L0.155,18.236L0.129,18.037L0.104,17.836L0.083,17.635L0.063,17.433L0.047,17.23L0.032,17.027L0.021,16.823L0.012,16.618L0.005,16.413L0.001,16.207L0,16L0.001,15.793L0.005,15.587L0.012,15.382L0.021,15.177L0.032,14.973L0.047,14.77L0.063,14.567L0.083,14.365L0.104,14.164L0.129,13.963L0.155,13.764L0.184,13.565L0.216,13.367L0.25,13.169L0.287,12.973L0.325,12.777L0.366,12.582L0.41,12.388L0.456,12.195L0.504,12.003L0.555,11.812L0.607,11.622L0.662,11.433L0.72,11.244L0.779,11.057L0.841,10.871L0.905,10.685L0.972,10.501L1.04,10.318L1.111,10.136L1.183,9.955L1.258,9.775L1.335,9.596L1.414,9.418L1.496,9.241L1.579,9.066L1.664,8.892L1.751,8.719L1.841,8.547L1.932,8.376L2.026,8.207L2.121,8.039L2.218,7.872L2.318,7.706L2.419,7.542L2.522,7.379L2.627,7.217L2.734,7.057L2.843,6.898L2.954,6.74L3.066,6.584L3.18,6.429L3.296,6.276L3.414,6.124L3.534,5.974L3.656,5.825L3.779,5.678L3.904,5.532L4.03,5.387L4.159,5.244L4.289,5.103L4.42,4.963L4.554,4.825L4.689,4.689L4.825,4.554L4.963,4.42L5.103,4.289L5.244,4.159L5.387,4.03L5.532,3.904L5.678,3.779L5.825,3.656L5.974,3.534L6.124,3.414L6.276,3.296L6.429,3.18L6.584,3.066L6.74,2.954L6.898,2.843L7.057,2.734L7.217,2.627L7.379,2.522L7.542,2.419L7.706,2.318L7.872,2.218L8.039,2.121L8.207,2.026L8.376,1.932L8.547,1.841L8.719,1.751L8.892,1.664L9.066,1.579L9.241,1.496L9.418,1.414L9.596,1.335L9.775,1.258L9.955,1.183L10.136,1.111L10.318,1.04L10.501,0.972L10.685,0.905L10.871,0.841L11.057,0.779L11.244,0.72L11.433,0.662L11.622,0.607L11.812,0.555L12.003,0.504L12.195,0.456L12.388,0.41L12.582,0.366L12.777,0.325L12.973,0.287L13.169,0.25L13.367,0.216L13.565,0.184L13.764,0.155L13.963,0.129L14.164,0.104L14.365,0.083L14.567,0.063L14.77,0.047L14.973,0.032L15.177,0.021L15.382,0.012L15.587,0.005L15.793,0.001L16,0L16.207,0.001ZM15.806,1.001L15.613,1.005L15.42,1.011L15.228,1.02L15.036,1.031L14.846,1.044L14.656,1.06L14.466,1.078L14.278,1.098L14.09,1.121L13.902,1.146L13.716,1.173L13.53,1.203L13.345,1.234L13.161,1.269L12.978,1.305L12.795,1.344L12.614,1.384L12.433,1.427L12.253,1.473L12.074,1.52L11.895,1.569L11.718,1.621L11.542,1.675L11.366,1.73L11.191,1.788L11.018,1.848L10.845,1.911L10.673,1.975L10.503,2.041L10.333,2.109L10.164,2.179L9.997,2.251L9.83,2.325L9.665,2.402L9.5,2.48L9.337,2.56L9.175,2.641L9.014,2.725L8.854,2.811L8.695,2.898L8.537,2.988L8.381,3.079L8.225,3.172L8.071,3.267L7.919,3.364L7.767,3.462L7.617,3.563L7.468,3.665L7.32,3.768L7.174,3.874L7.028,3.981L6.885,4.09L6.742,4.201L6.601,4.313L6.462,4.427L6.323,4.542L6.186,4.659L6.051,4.778L5.917,4.899L5.784,5.021L5.653,5.144L5.524,5.269L5.396,5.396L5.269,5.524L5.144,5.653L5.021,5.784L4.899,5.917L4.778,6.051L4.659,6.186L4.542,6.323L4.427,6.462L4.313,6.601L4.201,6.742L4.09,6.885L3.981,7.028L3.874,7.174L3.768,7.32L3.665,7.468L3.563,7.617L3.462,7.767L3.364,7.919L3.267,8.071L3.172,8.225L3.079,8.381L2.988,8.537L2.898,8.695L2.811,8.854L2.725,9.014L2.641,9.175L2.56,9.337L2.48,9.5L2.402,9.665L2.325,9.83L2.251,9.997L2.179,10.164L2.109,10.333L2.041,10.503L1.975,10.673L1.911,10.845L1.848,11.018L1.788,11.191L1.73,11.366L1.675,11.542L1.621,11.718L1.569,11.895L1.52,12.074L1.473,12.253L1.427,12.433L1.384,12.614L1.344,12.795L1.305,12.978L1.269,13.161L1.234,13.345L1.203,13.53L1.173,13.716L1.146,13.902L1.121,14.09L1.098,14.278L1.078,14.466L1.06,14.656L1.044,14.846L1.031,15.036L1.02,15.228L1.011,15.42L1.005,15.613L1.001,15.806L1,16L1.001,16.194L1.005,16.387L1.011,16.58L1.02,16.772L1.031,16.964L1.044,17.154L1.06,17.344L1.078,17.534L1.098,17.722L1.121,17.91L1.146,18.098L1.173,18.284L1.203,18.47L1.234,18.655L1.269,18.839L1.305,19.022L1.344,19.205L1.384,19.386L1.427,19.567L1.473,19.747L1.52,19.926L1.569,20.105L1.621,20.282L1.675,20.458L1.73,20.634L1.788,20.809L1.848,20.982L1.911,21.155L1.975,21.327L2.041,21.497L2.109,21.667L2.179,21.836L2.251,22.003L2.325,22.17L2.402,22.335L2.48,22.5L2.56,22.663L2.641,22.825L2.725,22.986L2.811,23.146L2.898,23.305L2.988,23.463L3.079,23.619L3.172,23.775L3.267,23.929L3.364,24.081L3.462,24.233L3.563,24.383L3.665,24.532L3.768,24.68L3.874,24.826L3.981,24.972L4.09,25.115L4.201,25.258L4.313,25.399L4.427,25.538L4.542,25.677L4.659,25.814L4.778,25.949L4.899,26.083L5.021,26.216L5.144,26.347L5.269,26.476L5.396,26.604L5.524,26.731L5.653,26.856L5.784,26.979L5.917,27.101L6.051,27.222L6.186,27.341L6.323,27.458L6.462,27.573L6.601,27.687L6.742,27.799L6.885,27.91L7.028,28.019L7.174,28.126L7.32,28.232L7.468,28.335L7.617,28.437L7.767,28.538L7.919,28.636L8.071,28.733L8.225,28.828L8.381,28.921L8.537,29.012L8.695,29.102L8.854,29.189L9.014,29.275L9.175,29.359L9.337,29.44L9.5,29.52L9.665,29.598L9.83,29.675L9.997,29.749L10.164,29.821L10.333,29.891L10.503,29.959L10.673,30.025L10.845,30.089L11.018,30.152L11.191,30.212L11.366,30.27L11.542,30.325L11.718,30.379L11.895,30.431L12.074,30.48L12.253,30.527L12.433,30.573L12.614,30.616L12.795,30.656L12.978,30.695L13.161,30.731L13.345,30.766L13.53,30.797L13.716,30.827L13.902,30.854L14.09,30.879L14.278,30.902L14.466,30.922L14.656,30.94L14.846,30.956L15.036,30.969L15.228,30.98L15.42,30.989L15.613,30.995L15.806,30.999L16,31L16.194,30.999L16.387,30.995L16.58,30.989L16.772,30.98L16.964,30.969L17.154,30.956L17.344,30.94L17.534,30.922L17.722,30.902L17.91,30.879L18.098,30.854L18.284,30.827L18.47,30.797L18.655,30.766L18.839,30.731L19.022,30.695L19.205,30.656L19.386,30.616L19.567,30.573L19.747,30.527L19.926,30.48L20.105,30.431L20.282,30.379L20.458,30.325L20.634,30.27L20.809,30.212L20.982,30.152L21.155,30.089L21.327,30.025L21.497,29.959L21.667,29.891L21.836,29.821L22.003,29.749L22.17,29.675L22.335,29.598L22.5,29.52L22.663,29.44L22.825,29.359L22.986,29.275L23.146,29.189L23.305,29.102L23.463,29.012L23.619,28.921L23.775,28.828L23.929,28.733L24.081,28.636L24.233,28.538L24.383,28.437L24.532,28.335L24.68,28.232L24.826,28.126L24.972,28.019L25.115,27.91L25.258,27.799L25.399,27.687L25.538,27.573L25.677,27.458L25.814,27.341L25.949,27.222L26.083,27.101L26.216,26.979L26.347,26.856L26.476,26.731L26.604,26.604L26.731,26.476L26.856,26.347L26.979,26.216L27.101,26.083L27.222,25.949L27.341,25.814L27.458,25.677L27.573,25.538L27.687,25.399L27.799,25.258L27.91,25.115L28.019,24.972L28.126,24.826L28.232,24.68L28.335,24.532L28.437,24.383L28.538,24.233L28.636,24.081L28.733,23.929L28.828,23.775L28.921,23.619L29.012,23.463L29.102,23.305L29.189,23.146L29.275,22.986L29.359,22.825L29.44,22.663L29.52,22.5L29.598,22.335L29.675,22.17L29.749,22.003L29.821,21.836L29.891,21.667L29.959,21.497L30.025,21.327L30.089,21.155L30.152,20.982L30.212,20.809L30.27,20.634L30.325,20.458L30.379,20.282L30.431,20.105L30.48,19.926L30.527,19.747L30.573,19.567L30.616,19.386L30.656,19.205L30.695,19.022L30.731,18.839L30.766,18.655L30.797,18.47L30.827,18.284L30.854,18.098L30.879,17.91L30.902,17.722L30.922,17.534L30.94,17.344L30.956,17.154L30.969,16.964L30.98,16.772L30.989,16.58L30.995,16.387L30.999,16.194L31,16L30.999,15.806L30.995,15.613L30.989,15.42L30.98,15.228L30.969,15.036L30.956,14.846L30.94,14.656L30.922,14.466L30.902,14.278L30.879,14.09L30.854,13.902L30.827,13.716L30.797,13.53L30.766,13.345L30.731,13.161L30.695,12.978L30.656,12.795L30.616,12.614L30.573,12.433L30.527,12.253L30.48,12.074L30.431,11.895L30.379,11.718L30.325,11.542L30.27,11.366L30.212,11.191L30.152,11.018L30.089,10.845L30.025,10.673L29.959,10.503L29.891,10.333L29.821,10.164L29.749,9.997L29.675,9.83L29.598,9.665L29.52,9.5L29.44,9.337L29.359,9.175L29.275,9.014L29.189,8.854L29.102,8.695L29.012,8.537L28.921,8.381L28.828,8.225L28.733,8.071L28.636,7.919L28.538,7.767L28.437,7.617L28.335,7.468L28.232,7.32L28.126,7.174L28.019,7.028L27.91,6.885L27.799,6.742L27.687,6.601L27.573,6.462L27.458,6.323L27.341,6.186L27.222,6.051L27.101,5.917L26.979,5.784L26.856,5.653L26.731,5.524L26.604,5.396L26.476,5.269L26.347,5.144L26.216,5.021L26.083,4.899L25.949,4.778L25.814,4.659L25.677,4.542L25.538,4.427L25.399,4.313L25.258,4.201L25.115,4.09L24.972,3.981L24.826,3.874L24.68,3.768L24.532,3.665L24.383,3.563L24.233,3.462L24.081,3.364L23.929,3.267L23.775,3.172L23.619,3.079L23.463,2.988L23.305,2.898L23.146,2.811L22.986,2.725L22.825,2.641L22.663,2.56L22.5,2.48L22.335,2.402L22.17,2.325L22.003,2.251L21.836,2.179L21.667,2.109L21.497,2.041L21.327,1.975L21.155,1.911L20.982,1.848L20.809,1.788L20.634,1.73L20.458,1.675L20.282,1.621L20.105,1.569L19.926,1.52L19.747,1.473L19.567,1.427L19.386,1.384L19.205,1.344L19.022,1.305L18.839,1.269L18.655,1.234L18.47,1.203L18.284,1.173L18.098,1.146L17.91,1.121L17.722,1.098L17.534,1.078L17.344,1.06L17.154,1.044L16.964,1.031L16.772,1.02L16.58,1.011L16.387,1.005L16.194,1.001L16,1L15.806,1.001Z" style="fill:rgb(0,234,63);"/>
</svg>
