<?xml version="1.0" encoding="UTF-8" standalone="no"?>
<!DOCTYPE svg PUBLIC "-//W3C//DTD SVG 1.1//EN" "http://www.w3.org/Graphics/SVG/1.1/DTD/svg11.dtd">
<svg width="100%" height="100%" viewBox="0 0 32 32" version="1.1" xmlns="http://www.w3.org/2000/svg" xmlns:xlink="http://www.w3.org/1999/xlink" xml:space="preserve" style="fill-rule:evenodd;clip-rule:evenodd;stroke-linecap:round;stroke-miterlimit:1.41421;">
    <g id="People" transform="matrix(1,0,0,1,-371.529,-285.934)">
        <g transform="matrix(-0.775131,-1.34228e-18,1.45277e-18,0.844872,681.801,47.6829)">
            <path d="M398.015,310.302C398.061,310.999 398.174,311.806 397.357,312.148C393.529,313.753 382.875,313.789 378.583,312.065C377.825,311.761 377.941,310.963 377.985,310.302C378.112,308.375 378.635,307.023 380.756,305.921C382.143,305.2 384.391,305.205 386.339,305.232C386.663,305.236 386.649,304.981 386.597,304.459C383.741,303.652 381.967,300.494 381.604,296.584C381.193,292.149 382.385,288.491 388,288.514L388.041,288.514C393.614,288.536 394.619,292.153 394.396,296.584C394.174,300.983 392.259,303.652 389.403,304.459C389.389,305.06 389.502,305.284 389.797,305.28C391.683,305.251 393.865,305.263 395.244,305.921C396.881,306.701 397.888,308.375 398.015,310.302Z" style="fill:none;stroke:white;stroke-width:1.54px;"/>
        </g>
        <g transform="matrix(-1.39371,0,0,1.5047,434.356,285.666)">
            <path d="M23.362,10.811L30.558,10.811" style="fill:none;stroke:white;stroke-width:0.9px;stroke-linejoin:round;stroke-miterlimit:1.5;"/>
        </g>
    </g>
</svg>
