<?xml version="1.0" encoding="UTF-8" standalone="no"?>
<!DOCTYPE svg PUBLIC "-//W3C//DTD SVG 1.1//EN" "http://www.w3.org/Graphics/SVG/1.1/DTD/svg11.dtd">
<svg width="100%" height="100%" viewBox="0 0 200 320" version="1.1" xmlns="http://www.w3.org/2000/svg" xmlns:xlink="http://www.w3.org/1999/xlink" xml:space="preserve" style="fill-rule:evenodd;clip-rule:evenodd;stroke-linejoin:round;stroke-miterlimit:1.41421;">
    <g transform="matrix(3.37561,0,0,3.37561,-116.288,-403.797)">
        <g id="Neo">
            <g>
                <path d="M44.508,196.953L43.758,196.953L43.758,194.662L41.196,194.662L41.196,196.953L40.446,196.953L40.446,194.662L39.96,193.912L40.446,193.912L40.446,189.461C40.446,188.901 40.645,188.422 41.043,188.024C41.441,187.626 41.918,187.427 42.473,187.427C43.033,187.427 43.513,187.626 43.911,188.024C44.309,188.422 44.508,188.901 44.508,189.461L44.508,196.953ZM43.758,189.461C43.758,189.11 43.635,188.806 43.39,188.552C43.131,188.302 42.825,188.177 42.473,188.177C42.126,188.177 41.827,188.303 41.574,188.555C41.322,188.807 41.196,189.11 41.196,189.461L41.196,193.912L43.758,193.912L43.758,189.461Z" style="fill:white;fill-rule:nonzero;"/>
                <path d="M48.931,190.482L48.035,190.482L46.882,190.482L46.882,196.196L50.194,196.196L50.194,196.953L46.132,196.953L46.132,190.482L45.646,189.718L46.132,189.718L46.132,188.177L45.646,187.427L49.715,187.427L50.194,188.177L46.882,188.177L46.882,189.718L49.132,189.718L48.931,190.482Z" style="fill:white;fill-rule:nonzero;"/>
                <path d="M56.297,191.051C56.297,191.884 56.047,192.625 55.547,193.273C55.034,193.917 54.383,194.342 53.596,194.551L55.763,196.953L54.749,196.953L52.687,194.676L52.687,196.953L51.937,196.953L51.937,194.662L51.451,193.912L51.937,193.912L51.937,188.163L51.465,187.427L52.687,187.427C53.682,187.427 54.536,187.776 55.249,188.475C55.948,189.188 56.297,190.047 56.297,191.051ZM55.547,191.051C55.547,190.255 55.267,189.577 54.707,189.017C54.147,188.457 53.474,188.177 52.687,188.177L52.687,193.912C53.474,193.912 54.147,193.632 54.707,193.072C55.267,192.512 55.547,191.838 55.547,191.051Z" style="fill:white;fill-rule:nonzero;"/>
                <path d="M66.823,192.19C66.823,193.509 66.358,194.632 65.428,195.557C64.502,196.488 63.379,196.953 62.06,196.953C60.741,196.953 59.617,196.489 58.689,195.561C57.761,194.633 57.297,193.509 57.297,192.19C57.297,190.871 57.762,189.748 58.693,188.823C59.618,187.892 60.741,187.427 62.06,187.427C63.379,187.427 64.502,187.892 65.428,188.823C66.358,189.748 66.823,190.871 66.823,192.19ZM66.073,192.19C66.073,191.079 65.684,190.13 64.907,189.343C64.12,188.566 63.171,188.177 62.06,188.177C60.949,188.177 60.007,188.566 59.234,189.343C58.447,190.13 58.054,191.079 58.054,192.19C58.054,193.301 58.447,194.243 59.234,195.016C60.007,195.803 60.949,196.196 62.06,196.196C63.171,196.196 64.12,195.803 64.907,195.016C65.684,194.243 66.073,193.301 66.073,192.19Z" style="fill:white;fill-rule:nonzero;"/>
                <path d="M71.892,196.953L71.135,196.953L71.135,190.399L68.58,188.788L68.58,196.953L67.823,196.953L67.823,187.427L71.135,189.503L71.135,187.427L71.892,187.427L71.892,196.953Z" style="fill:white;fill-rule:nonzero;"/>
                <path d="M77.592,196.953L76.842,196.953L76.842,194.662L74.28,194.662L74.28,196.953L73.53,196.953L73.53,194.662L73.044,193.912L73.53,193.912L73.53,189.461C73.53,188.901 73.729,188.422 74.127,188.024C74.525,187.626 75.002,187.427 75.558,187.427C76.118,187.427 76.597,187.626 76.995,188.024C77.393,188.422 77.592,188.901 77.592,189.461L77.592,196.953ZM76.842,189.461C76.842,189.11 76.72,188.806 76.474,188.552C76.215,188.302 75.909,188.177 75.558,188.177C75.211,188.177 74.911,188.303 74.659,188.555C74.406,188.807 74.28,189.11 74.28,189.461L74.28,193.912L76.842,193.912L76.842,189.461Z" style="fill:white;fill-rule:nonzero;"/>
                <path d="M82.799,194.919C82.799,195.479 82.6,195.958 82.202,196.356C81.804,196.754 81.325,196.953 80.765,196.953C80.205,196.953 79.726,196.754 79.328,196.356C78.93,195.958 78.731,195.479 78.731,194.919L78.731,187.427L79.488,187.427L79.488,194.919C79.488,195.27 79.615,195.569 79.869,195.814C80.115,196.069 80.413,196.196 80.765,196.196C81.117,196.196 81.42,196.069 81.675,195.814C81.92,195.569 82.043,195.27 82.043,194.919L82.043,187.427L82.799,187.427L82.799,194.919Z" style="fill:white;fill-rule:nonzero;"/>
                <path d="M88.187,188.177L86.667,188.177L86.667,196.953L85.917,196.953L85.917,188.177L84.126,188.177L83.64,187.427L87.708,187.427L88.187,188.177Z" style="fill:white;fill-rule:nonzero;"/>
            </g>
        </g>
    </g>
    <path d="M56.112,140.172L61.875,141.219C65.088,159.356 80.946,173.149 100,173.15L100,178.687C77.519,178.687 58.931,161.89 56.112,140.172ZM144.258,134.43C144.258,156.91 127.46,175.499 105.742,178.317L106.79,172.555C124.927,169.342 138.72,153.484 138.72,134.43L144.258,134.43ZM94.258,90.542L93.21,96.304C75.073,99.518 61.28,115.375 61.28,134.43L55.742,134.43C55.743,111.948 72.54,93.36 94.258,90.542ZM100,90.172C122.481,90.172 141.069,106.969 143.888,128.688L138.125,127.64C134.912,109.503 119.054,95.71 100,95.71L100,90.172Z" style="fill:white;fill-opacity:0.74902;"/>
    <path d="M24.531,134.43L45.405,138.225C47.356,166.66 71.071,189.154 100,189.155L100,209.899L90.944,209.899L84.907,192.895C79.376,191.465 74.157,189.26 69.356,186.42L69.332,186.443L53.039,194.198L40.232,181.39L47.986,165.098L48.01,165.074C45.17,160.273 42.964,155.054 41.535,149.523L24.531,143.486L24.531,134.43ZM175.469,134.43L175.469,143.486L158.465,149.523C157.035,155.054 154.83,160.273 151.99,165.074L152.013,165.098L159.768,181.39L146.96,194.198L130.668,186.443L130.645,186.42C125.844,189.26 120.624,191.465 115.094,192.895L109.056,209.899L100,209.899L103.795,189.025C132.231,187.073 154.725,163.358 154.725,134.43L175.469,134.43ZM100,58.96L96.205,79.834C67.769,81.786 45.275,105.501 45.275,134.43L24.531,134.43L24.531,125.373L41.535,119.336C42.964,113.806 45.169,108.586 48.01,103.785L47.986,103.762L40.231,87.469L53.039,74.661L69.332,82.416L69.355,82.44C74.156,79.599 79.376,77.394 84.906,75.965L90.944,58.96L100,58.96ZM100,58.96L109.056,58.96L115.094,75.964C120.624,77.394 125.844,79.599 130.645,82.439L130.668,82.416L146.96,74.661L159.768,87.469L152.013,103.762L151.99,103.785C154.83,108.586 157.035,113.805 158.465,119.336L175.469,125.373L175.469,134.43L154.595,130.634C152.644,102.198 128.928,79.704 100,79.704L100,58.96Z" style="fill:white;fill-opacity:0.498039;"/>
    <g id="major-rose" transform="matrix(0.483778,0,0,0.483778,24.5307,58.9603)">
        <g id="dark-major">
            <path id="dark-north" d="M156,156L180,132L156,0" style="fill:white;fill-rule:nonzero;"/>
            <path id="dark-east" d="M156,156L180,180L312,156" style="fill:white;fill-rule:nonzero;"/>
            <path id="dark-south" d="M156,156L132,180L156,312" style="fill:white;fill-rule:nonzero;"/>
            <path id="dark-west" d="M156,156L132,132L0,156" style="fill:white;fill-rule:nonzero;"/>
        </g>
    </g>
</svg>
