<?xml version="1.0" standalone="no"?>
<!DOCTYPE svg PUBLIC "-//W3C//DTD SVG 1.1//EN" "http://www.w3.org/Graphics/SVG/1.1/DTD/svg11.dtd">
<svg width="100%" height="100%" viewBox="0 0 32 32" version="1.1" xmlns="http://www.w3.org/2000/svg" xmlns:xlink="http://www.w3.org/1999/xlink" xml:space="preserve" style="fill-rule:evenodd;clip-rule:evenodd;stroke-linecap:round;stroke-linejoin:round;stroke-miterlimit:1.41421;">
    <g id="Calendar Icon" transform="matrix(1,0,0,1,-464.437,-284.883)">
        <g transform="matrix(0.6556,0.254189,-0.312747,0.80663,238.016,-78.1559)">
            <path d="M506.904,300.079C504.636,301.066 502.648,298.165 502.506,296.343C502.277,293.402 505.391,293.31 506.204,295.12" style="fill:none;stroke-width:1.59px;stroke:white;"/>
        </g>
        <g transform="matrix(0.6556,0.254189,-0.312747,0.80663,246.6,-78.1559)">
            <path d="M506.904,300.079C504.636,301.066 502.648,298.165 502.506,296.343C502.277,293.402 505.391,293.31 506.204,295.12" style="fill:none;stroke-width:1.32px;stroke:white;"/>
        </g>
        <g transform="matrix(0.865138,0,0,0.865138,65.7881,36.6682)">
            <path d="M475.266,293.036C478.704,293.036 476.777,293.036 479.866,293.036" style="fill:none;stroke-width:1.53px;stroke:white;"/>
        </g>
        <g transform="matrix(0.865138,0,0,0.865138,65.7881,38.6682)">
            <path d="M485.234,290.724C485.718,290.724 489.305,290.724 489.764,290.724C490.817,290.724 491.828,291.142 492.572,291.887C493.317,292.632 493.735,293.642 493.735,294.695C493.735,298.738 493.735,309.505 493.735,313.548C493.735,314.601 493.317,315.611 492.572,316.356C491.828,317.101 490.817,317.519 489.764,317.519C484.248,317.519 474.325,317.519 468.809,317.519C467.756,317.519 466.746,317.101 466.001,316.356C465.257,315.611 464.838,314.601 464.838,313.548C464.838,309.505 464.838,298.738 464.838,294.695C464.838,293.642 465.257,292.632 466.001,291.887C466.746,291.142 467.756,290.724 468.809,290.724C469.391,290.724 469.972,290.724 469.972,290.724" style="fill:none;stroke-width:1.53px;stroke:white;"/>
        </g>
    </g>
</svg>
