<?xml version="1.0" encoding="UTF-8" standalone="no"?>
<!DOCTYPE svg PUBLIC "-//W3C//DTD SVG 1.1//EN" "http://www.w3.org/Graphics/SVG/1.1/DTD/svg11.dtd">
<svg width="100%" height="100%" viewBox="0 0 40 40" version="1.1" xmlns="http://www.w3.org/2000/svg" xmlns:xlink="http://www.w3.org/1999/xlink" xml:space="preserve" style="fill-rule:evenodd;clip-rule:evenodd;stroke-linejoin:round;stroke-miterlimit:1.41421;">
    <g id="Microphone-Icon" transform="matrix(0.472464,0,0,0.472464,8.63648,9.17268)">
        <path d="M24,28C27.31,28 29.98,25.31 29.98,22L30,10C30,6.68 27.32,4 24,4C20.69,4 18,6.68 18,10L18,22C18,25.31 20.69,28 24,28ZM36.295,22C35.373,22.001 34.591,22.676 34.456,23.588C33.674,28.729 29.027,32.2 24,32.2C18.986,32.2 14.335,28.735 13.524,23.603C13.389,22.695 12.609,22.024 11.692,22.024L11.691,22C11.232,22 10.795,22.197 10.493,22.542C10.19,22.886 10.051,23.345 10.11,23.8C10.98,29.799 16.025,34.557 22,35.44C22,35.44 22,38.072 22,40.002C22,40.532 22.211,41.04 22.585,41.415C22.96,41.789 23.468,42 23.998,42C23.999,42 24.001,42 24.002,42C24.532,42 25.04,41.789 25.415,41.415C25.789,41.04 26,40.532 26,40.002C26,38.072 26,35.44 26,35.44C31.97,34.557 37.012,29.807 37.871,23.812C37.931,23.358 37.792,22.901 37.491,22.557C37.189,22.213 36.754,22.016 36.297,22.016C36.296,22 36.295,22 36.295,22Z" style="fill:white;fill-rule:nonzero;"/>
    </g>
</svg>
