<?xml version="1.0" encoding="UTF-8" standalone="no"?>
<!DOCTYPE svg PUBLIC "-//W3C//DTD SVG 1.1//EN" "http://www.w3.org/Graphics/SVG/1.1/DTD/svg11.dtd">
<svg width="100%" height="100%" viewBox="0 0 32 32" version="1.1" xmlns="http://www.w3.org/2000/svg" xmlns:xlink="http://www.w3.org/1999/xlink" xml:space="preserve" style="fill-rule:evenodd;clip-rule:evenodd;stroke-linejoin:round;stroke-miterlimit:1.41421;">
    <g id="Notifications-Icon" transform="matrix(-0.322455,0,0,0.328794,32.7354,-0.456164)">
        <path d="M80.6,67.7L80.6,43.4C80.6,29.8 71.2,18.4 58.5,15.4L58.5,12.4C58.5,8.7 55.5,5.8 51.9,5.8C48.3,5.8 45.3,8.8 45.3,12.4L45.3,15.4C32.6,18.4 23.2,29.8 23.2,43.4L23.2,67.7L14.3,76.6L14.3,81L89.5,81L89.5,76.6L80.6,67.7Z" style="fill:none;stroke:white;stroke-width:3.99px;"/>
    </g>
    <g id="Notifications-Icon1" transform="matrix(-0.322455,0,0,0.328794,32.7354,-0.456164)">
        <path d="M51.9,94.3C56.8,94.3 60.8,90.3 60.8,85.4L43,85.4C43,90.3 47,94.3 51.9,94.3Z" style="fill:white;fill-rule:nonzero;"/>
    </g>
</svg>
