<?xml version="1.0" encoding="UTF-8" standalone="no"?>
<!DOCTYPE svg PUBLIC "-//W3C//DTD SVG 1.1//EN" "http://www.w3.org/Graphics/SVG/1.1/DTD/svg11.dtd">
<svg width="100%" height="100%" viewBox="0 0 300 300" version="1.1" xmlns="http://www.w3.org/2000/svg" xmlns:xlink="http://www.w3.org/1999/xlink" xml:space="preserve" style="fill-rule:evenodd;clip-rule:evenodd;stroke-linecap:round;stroke-linejoin:round;stroke-miterlimit:1.5;">
    <rect x="-25.464" y="-12.525" width="364.262" height="334.207" style="fill:rgb(95,210,216);"/>
    <g id="Left-Arm" transform="matrix(1.44446,-1.44446,1.44446,1.44446,-298.99,213.412)">
        <g transform="matrix(0.18477,0.982782,-0.982782,0.18477,273.848,-60.1723)">
            <path d="M201.449,152.76C201.449,140.995 181.638,140.6 181.638,152.76L181.793,191.707C176.548,191.707 177.003,198.417 181.638,198.417L181.638,203.462C181.638,212.48 201.449,212.414 201.449,203.462L201.449,152.76Z" style="fill:none;stroke:black;stroke-width:4.08px;"/>
        </g>
        <g transform="matrix(0.18477,0.982782,-0.982782,0.18477,273.848,-60.1723)">
            <path d="M201.449,152.76C201.449,140.995 181.638,140.6 181.638,152.76L181.793,191.707C176.548,191.707 177.003,198.417 181.638,198.417L181.638,203.462C181.638,212.48 201.449,212.414 201.449,203.462L201.449,152.76Z" style="fill:rgb(255,230,207);stroke:black;stroke-width:1.33px;"/>
        </g>
        <g transform="matrix(0.18477,0.982782,-0.982782,0.18477,273.848,-60.1723)">
            <path d="M200.015,151.966C200.015,146.486 192.446,145.18 192.446,145.18C190.008,166.283 197.247,187.604 190.368,191.486C196.142,196.572 191.717,206.911 189.615,208.621C193.66,209.943 200.065,207.57 200.061,203.862L200.015,151.966Z" style="fill:rgb(237,209,183);"/>
        </g>
        <g transform="matrix(0.18477,0.982782,-0.982782,0.18477,273.848,-60.1723)">
            <path d="M201.449,152.76C201.449,140.995 181.638,140.6 181.638,152.76L181.705,169.602L201.248,168.7L201.449,152.76Z" style="fill:rgb(47,110,146);stroke:black;stroke-width:1.33px;"/>
        </g>
        <g transform="matrix(0.18477,0.982782,-0.982782,0.18477,273.848,-60.1723)">
            <path d="M200.303,153.133C200.669,142.726 186.233,144.683 186.266,146.741C192.041,154.074 192.769,159.373 192.414,167.688L199.797,167.512L200.303,153.133Z" style="fill:rgb(45,86,109);"/>
        </g>
    </g>
    <g id="Body-Outline" transform="matrix(2.04278,0,0,2.04278,-213.876,-25.4181)">
        <path d="M165.67,156.986L164.622,157.056C164.542,148.576 156.719,136.216 162.837,125.12L207.887,114.663L207.554,154.174L172.566,156.523L206.339,154.608L210.598,191.387L186.741,192.285L188.414,183.016C188.299,166.145 180.757,175.668 174.505,189.514L152.122,190.577C159.911,182.824 166.005,165.97 165.67,156.986Z" style="fill:none;stroke:black;stroke-width:4.08px;"/>
    </g>
    <g id="Body">
        <g id="Pants" transform="matrix(1.9173,0,0,1.92417,-86.77,-55.3447)">
            <path d="M110.215,182.14C110.61,191.658 104.104,209.625 95.784,217.878L119.631,216.748C126.293,202.049 134.328,191.94 134.451,209.851L132.668,219.691L158.086,218.738L153.548,179.691L110.215,182.14Z" style="fill:rgb(0,3,49);"/>
        </g>
        <g id="Pants-Outline" transform="matrix(1.9173,0,0,1.92417,-86.77,-55.3447)">
            <path d="M153.638,178.589C153.771,178.609 153.807,178.607 153.935,178.655C154.223,178.761 154.458,178.987 154.575,179.271C154.626,179.396 154.626,179.432 154.651,179.564L159.189,218.611C159.195,218.745 159.203,218.78 159.182,218.913C159.125,219.267 158.892,219.578 158.569,219.734C158.477,219.778 158.38,219.809 158.279,219.827C158.229,219.836 158.178,219.838 158.128,219.843L132.709,220.796C132.563,220.79 132.524,220.797 132.382,220.759C132.004,220.659 131.701,220.359 131.597,219.984C131.568,219.878 131.555,219.768 131.558,219.658C131.56,219.603 131.57,219.549 131.575,219.494L133.34,209.757C133.327,208.539 133.284,207.319 133.162,206.106C133.09,205.4 132.994,204.695 132.844,204.001C132.754,203.583 132.645,203.167 132.499,202.765C132.41,202.519 132.306,202.277 132.176,202.05C132.091,201.901 131.993,201.755 131.874,201.63C131.798,201.551 131.71,201.478 131.609,201.433C131.395,201.341 131.144,201.413 130.94,201.496C130.897,201.513 130.855,201.531 130.813,201.551C130.537,201.682 130.283,201.856 130.043,202.043C129.737,202.283 129.451,202.549 129.179,202.827C128.452,203.567 127.811,204.39 127.208,205.231C126.437,206.307 125.731,207.427 125.06,208.566C124.624,209.305 124.204,210.054 123.796,210.808C123.303,211.719 122.828,212.639 122.367,213.566C121.77,214.769 121.198,215.983 120.642,217.205L120.57,217.339C120.49,217.447 120.475,217.479 120.374,217.57C120.223,217.706 120.035,217.798 119.835,217.836C119.785,217.845 119.734,217.847 119.684,217.853L95.836,218.983C95.784,218.981 95.732,218.984 95.68,218.979C95.524,218.964 95.371,218.916 95.235,218.839C94.865,218.63 94.645,218.216 94.677,217.794C94.685,217.69 94.708,217.588 94.744,217.49C94.781,217.392 94.831,217.3 94.894,217.217C94.925,217.175 94.962,217.138 94.996,217.099C95.186,216.909 95.185,216.909 95.373,216.717C95.751,216.321 96.121,215.917 96.478,215.502C97.506,214.306 98.442,213.034 99.313,211.721C100.193,210.393 101.005,209.02 101.762,207.619C102.866,205.574 103.853,203.468 104.737,201.32C105.612,199.194 106.386,197.027 107.047,194.826C107.712,192.613 108.267,190.363 108.648,188.083C108.974,186.134 109.176,184.157 109.106,182.179L109.111,182.023C109.135,181.887 109.135,181.851 109.187,181.722C109.306,181.431 109.549,181.201 109.846,181.096C109.978,181.05 110.015,181.053 110.152,181.035L153.485,178.587C153.536,178.588 153.587,178.588 153.638,178.589ZM111.341,183.184C111.34,183.308 111.337,183.433 111.335,183.558C111.328,183.812 111.328,183.812 111.318,184.066C111.201,186.545 110.799,189.001 110.246,191.418C109.661,193.976 108.904,196.494 108.019,198.965C106.826,202.296 105.399,205.551 103.717,208.667C102.199,211.478 100.467,214.19 98.414,216.646L118.901,215.676C119.07,215.309 119.241,214.943 119.413,214.577C119.625,214.131 119.839,213.685 120.055,213.24C120.68,211.967 121.325,210.704 122.005,209.459C122.526,208.505 123.066,207.562 123.633,206.634C124.047,205.956 124.475,205.287 124.922,204.632C125.279,204.109 125.648,203.595 126.034,203.093C126.335,202.702 126.647,202.319 126.973,201.948C127.173,201.72 127.379,201.497 127.592,201.28C127.767,201.101 127.947,200.928 128.132,200.76C128.283,200.624 128.437,200.491 128.596,200.364C128.698,200.283 128.801,200.204 128.907,200.127C129.612,199.616 130.438,199.199 131.327,199.18C131.479,199.176 131.632,199.184 131.783,199.205C131.966,199.231 132.147,199.275 132.321,199.337C132.585,199.43 132.833,199.565 133.058,199.731C133.388,199.975 133.666,200.283 133.897,200.621C134.232,201.113 134.472,201.664 134.661,202.225C134.973,203.153 135.152,204.124 135.279,205.093C135.485,206.666 135.544,208.254 135.56,209.839L135.557,209.943L135.543,210.047L134.005,218.534L156.846,217.678L152.566,180.854C138.824,181.631 125.082,182.407 111.341,183.184Z" style="fill-rule:nonzero;"/>
        </g>
        <g id="Shirt-Color" transform="matrix(1.94489,0,0,2.15225,-92.8528,-96.5966)">
            <path d="M108.807,151.828C102.381,162.359 110.597,174.091 110.681,182.14L155.775,179.404L156.124,141.903L108.807,151.828Z" style="fill:rgb(47,110,146);"/>
        </g>
        <g id="Shirt-Outline" transform="matrix(1.94489,0,0,2.15225,-92.8528,-96.5966)">
            <path d="M156.297,140.927C156.419,140.952 156.452,140.953 156.567,140.999C156.827,141.103 157.035,141.299 157.14,141.537C157.175,141.616 157.198,141.699 157.21,141.784C157.215,141.826 157.215,141.869 157.218,141.911L156.869,179.412C156.86,179.521 156.864,179.55 156.833,179.656C156.751,179.936 156.532,180.174 156.242,180.298C156.159,180.333 156.072,180.359 155.983,180.374C155.939,180.382 155.893,180.385 155.848,180.39L110.755,183.126C110.709,183.126 110.664,183.129 110.618,183.127C110.527,183.122 110.437,183.107 110.351,183.082C109.999,182.981 109.722,182.72 109.626,182.399C109.583,182.258 109.588,182.118 109.584,181.973C109.583,181.914 109.58,181.855 109.578,181.796C109.569,181.616 109.569,181.616 109.558,181.436C109.435,179.805 109.063,178.2 108.634,176.615C108.22,175.084 107.75,173.565 107.3,172.043C107.206,171.723 107.113,171.402 107.02,171.082C106.765,170.182 106.517,169.281 106.294,168.375C105.818,166.431 105.449,164.46 105.314,162.47C105.157,160.157 105.329,157.82 105.981,155.573C106.243,154.668 106.582,153.781 106.994,152.923C107.229,152.432 107.49,151.952 107.77,151.481L107.847,151.354C107.909,151.265 107.92,151.239 108,151.161C108.118,151.044 108.268,150.953 108.433,150.899C108.475,150.885 108.518,150.876 108.56,150.865L155.876,140.94C156.016,140.919 156.015,140.919 156.157,140.915C156.203,140.919 156.25,140.923 156.297,140.927ZM109.538,152.69C109.048,153.547 108.64,154.441 108.323,155.362C108.121,155.949 107.956,156.546 107.827,157.149C107.459,158.86 107.381,160.612 107.498,162.35C107.626,164.236 107.979,166.104 108.431,167.947C108.569,168.51 108.715,169.071 108.87,169.631C109.046,170.267 109.228,170.901 109.414,171.535C109.689,172.467 109.97,173.398 110.245,174.33C110.377,174.784 110.508,175.239 110.636,175.695C111.127,177.468 111.563,179.26 111.725,181.085L154.689,178.479L155.018,143.15C139.858,146.33 124.698,149.51 109.538,152.69Z" style="fill-rule:nonzero;"/>
        </g>
    </g>
    <g id="Head" transform="matrix(2.04278,0,0,2.04278,-102.874,-76.6577)">
        <path id="Outline" d="M115.434,33.997C115.587,34.016 115.741,34.028 115.893,34.054C116.299,34.123 116.395,34.167 116.787,34.289L145.883,44.767L176.422,48.612L176.886,48.692C177.038,48.732 177.191,48.766 177.341,48.813C177.64,48.908 177.93,49.029 178.208,49.176C178.762,49.469 179.263,49.864 179.678,50.334C180.197,50.923 180.58,51.629 180.79,52.385C180.874,52.688 180.931,52.997 180.959,53.31C180.973,53.466 180.973,53.623 180.98,53.78L180.98,59.475L187.936,60.989L188.401,61.113C188.551,61.168 188.705,61.217 188.852,61.279C189.296,61.466 189.713,61.715 190.089,62.017C190.715,62.519 191.222,63.167 191.558,63.897C191.894,64.626 192.058,65.432 192.034,66.235C192.02,66.716 191.938,67.195 191.792,67.654C191.744,67.807 191.681,67.955 191.625,68.106L174.773,107.967L174.81,107.985L175.018,108.099C175.222,108.218 175.423,108.339 175.618,108.473C176.002,108.736 176.362,109.033 176.696,109.357C177.016,109.669 177.311,110.008 177.577,110.368C177.789,110.653 177.982,110.952 178.158,111.261C178.325,111.556 178.475,111.86 178.608,112.171C179.406,114.028 179.595,116.094 179.432,118.094C179.334,119.307 179.107,120.508 178.786,121.681C178.552,122.538 178.266,123.38 177.935,124.203C177.664,124.876 177.362,125.536 177.029,126.181C176.772,126.678 176.497,127.167 176.203,127.643C175.995,127.978 175.779,128.308 175.553,128.63C174.12,130.671 172.259,132.491 169.957,133.513C169.586,133.678 169.206,133.821 168.818,133.94C168.413,134.063 168,134.161 167.582,134.23C167.366,134.265 167.15,134.29 166.932,134.313L166.898,134.315L163.56,140.977L163.332,141.383C163.099,141.725 163.051,141.82 162.774,142.128C162.358,142.59 161.859,142.976 161.308,143.263C160.94,143.455 160.836,143.477 160.447,143.617L114.951,157.734C114.552,157.839 114.454,157.879 114.043,157.929C113.118,158.043 112.169,157.904 111.316,157.53C111.032,157.405 110.759,157.256 110.502,157.083C110.373,156.996 110.253,156.898 110.128,156.806L84.926,136.384C84.629,136.121 84.545,136.064 84.283,135.765C83.793,135.204 83.426,134.538 83.213,133.824C83.128,133.538 83.068,133.246 83.033,132.95C83.015,132.802 83.011,132.653 82.999,132.505C82.939,130.608 82.878,128.711 82.82,126.813C82.597,119.309 82.418,111.803 82.374,104.295C82.347,99.801 82.366,95.307 82.445,90.814C82.483,88.646 82.537,86.48 82.601,84.313L82.627,83.499C82.652,83.15 82.648,83.061 82.712,82.717C82.773,82.386 82.869,82.06 82.958,81.736C83.07,81.33 83.188,80.925 83.311,80.522C83.765,79.04 84.301,77.587 84.905,76.16L84.927,76.109L71.121,56.81L70.866,56.418C70.794,56.28 70.715,56.146 70.648,56.005C70.382,55.441 70.218,54.83 70.166,54.209C70.102,53.432 70.215,52.643 70.494,51.915C70.773,51.187 71.217,50.525 71.784,49.99C72.124,49.67 72.507,49.395 72.92,49.176C73.471,48.885 74.074,48.693 74.693,48.614C74.847,48.594 75.003,48.588 75.158,48.575L91.418,47.954L91.61,43.972L91.654,43.502C91.683,43.348 91.705,43.191 91.741,43.038C91.848,42.579 92.018,42.134 92.245,41.72C92.624,41.029 93.159,40.428 93.802,39.973C94.445,39.518 95.189,39.212 95.967,39.084C96.432,39.007 96.908,38.994 97.378,39.046C97.534,39.063 97.688,39.094 97.844,39.118L106.953,40.958L110.949,35.943L111.253,35.595C111.55,35.31 111.615,35.228 111.948,34.985C112.571,34.529 113.294,34.216 114.053,34.072C114.457,33.995 114.562,34.003 114.972,33.981C115.126,33.986 115.28,33.992 115.434,33.997ZM113.115,49.94C112.837,50.258 112.777,50.348 112.457,50.626C111.615,51.357 110.544,51.804 109.432,51.888C109.115,51.911 108.797,51.906 108.481,51.872C108.323,51.855 108.167,51.823 108.011,51.799L101.722,50.529L101.592,53.228L101.546,53.709C101.516,53.867 101.494,54.027 101.456,54.183C101.382,54.497 101.278,54.803 101.147,55.097C100.818,55.834 100.318,56.49 99.695,57.002C99.197,57.411 98.623,57.726 98.011,57.926C97.704,58.027 97.389,58.098 97.07,58.14C96.91,58.161 96.749,58.168 96.588,58.181L85.22,58.615L95.182,72.541L95.441,72.942C95.638,73.317 95.701,73.405 95.845,73.805C96.224,74.857 96.253,76.02 95.928,77.089C95.881,77.241 95.828,77.392 95.768,77.539C95.655,77.816 95.579,77.949 95.455,78.189C95.364,78.366 95.34,78.415 95.25,78.593C95.15,78.797 95.051,79.002 94.953,79.208C94.628,79.906 94.323,80.613 94.045,81.331C93.653,82.348 93.313,83.385 93.02,84.434C92.992,85.299 92.969,86.164 92.946,87.029C92.893,89.139 92.851,91.25 92.824,93.361C92.768,97.749 92.767,102.137 92.808,106.525C92.879,114.135 93.082,121.742 93.32,129.348L93.334,129.79L114.523,146.96L155.241,134.326L159.323,126.18L159.555,125.766C159.645,125.635 159.729,125.5 159.824,125.374C160.111,124.995 160.449,124.655 160.828,124.368C161.459,123.888 162.198,123.556 162.976,123.403C163.598,123.281 164.242,123.273 164.867,123.381C165.196,123.438 165.468,123.515 165.783,123.628C165.881,123.662 165.974,123.708 166.069,123.748C166.134,123.693 166.196,123.634 166.257,123.575C166.542,123.29 166.795,122.976 167.026,122.647C167.27,122.299 167.489,121.936 167.689,121.562C167.964,121.048 168.203,120.513 168.406,119.966C168.647,119.314 168.836,118.643 168.958,117.958L168.958,117.955L168.749,118.034L168.297,118.16C168.144,118.188 167.991,118.223 167.836,118.245C167.217,118.33 166.582,118.302 165.972,118.163C165.209,117.989 164.489,117.642 163.878,117.154C163.266,116.666 162.769,116.04 162.431,115.334C162.228,114.911 162.083,114.461 162.001,113.999C161.918,113.537 161.899,113.065 161.942,112.598C161.957,112.442 161.981,112.287 162.007,112.133C162.041,111.934 162.152,111.315 162.225,111.037C162.309,110.714 162.348,110.638 162.466,110.327L179.586,69.832L174.664,68.761L174.209,68.64C174.062,68.586 173.912,68.539 173.767,68.478C173.477,68.357 173.198,68.211 172.935,68.039C171.877,67.352 171.092,66.283 170.754,65.067C170.67,64.764 170.613,64.455 170.585,64.142C170.571,63.986 170.571,63.828 170.564,63.671L170.564,58.373L144.01,55.03L143.632,54.969C143.26,54.879 143.26,54.88 142.895,54.763L116.769,45.354C115.551,46.883 114.333,48.411 113.115,49.94Z" style="fill-rule:nonzero;"/>
        <g id="Main-Color" transform="matrix(1,0,0,1.03988,0,-2.23006)">
            <path d="M87.833,82.6C87.269,99.227 87.718,115.008 88.205,129.406L113.407,149.045L158.903,135.47L163.98,125.729C172.141,130.511 180.766,105.161 167.128,110.892C167.128,110.892 170.844,91.734 170.963,89.414C173.227,45.15 98.985,41.465 87.833,82.6Z" style="fill:rgb(255,230,207);stroke:black;stroke-width:1px;"/>
        </g>
        <g id="Beard" transform="matrix(0.97301,0,0,0.914804,4.41389,12.2547)">
            <path d="M86.922,119.869C91.792,122.586 89.57,130.852 109.177,124.33C124.585,130.401 140.257,131.049 156.284,124.33L162.184,128.356L157.681,138.434L111.786,152.76L87.171,130.751L86.922,119.869Z" style="fill:rgb(219,187,157);"/>
        </g>
        <g id="Forehead-Shadow" transform="matrix(1,0,0,1,0,-21.464)">
            <path d="M91.12,99.4L148.973,97.968L157.632,115.372L133.349,107.401L95.857,109.014L91.12,99.4Z" style="fill:rgb(237,209,183);"/>
        </g>
        <g id="Hair">
            <path id="Main-Color1" d="M75.357,53.78L96.812,83.773L146.288,76.914L157.617,92.957L155.449,100.659L157.475,124.33L166.955,113.085L186.828,66.078L175.772,63.671L175.772,53.78L144.66,49.863L115.022,39.189L109.042,46.694L96.812,44.223L96.39,52.977L75.357,53.78Z" style="fill:rgb(130,82,44);"/>
            <path id="Outline1" d="M115.16,37.215C115.43,37.252 115.43,37.252 115.693,37.327L145.125,47.927L176.019,51.816L176.299,51.872C176.538,51.957 176.605,51.966 176.821,52.102C177.228,52.356 177.532,52.756 177.669,53.215C177.742,53.46 177.733,53.527 177.751,53.78L177.751,62.077L187.249,64.144L187.527,64.226C187.759,64.334 187.826,64.349 188.031,64.506C188.575,64.923 188.869,65.609 188.796,66.29C188.768,66.546 188.733,66.606 188.651,66.848L168.778,113.855C168.702,114.014 168.688,114.057 168.588,114.203C168.551,114.257 168.508,114.308 168.468,114.36L158.988,125.605C158.92,125.675 158.857,125.749 158.784,125.814C158.566,126.007 158.304,126.15 158.024,126.231C157.837,126.285 157.643,126.311 157.449,126.309C156.76,126.3 156.111,125.921 155.764,125.325C155.666,125.157 155.594,124.975 155.549,124.786C155.526,124.691 155.518,124.594 155.503,124.498L153.477,100.828C153.475,100.748 153.468,100.669 153.471,100.59C153.479,100.379 153.499,100.328 153.544,100.123L155.457,93.328L145.366,79.04L97.084,85.733C96.847,85.75 96.786,85.767 96.548,85.734C96.192,85.686 95.851,85.54 95.571,85.315C95.384,85.164 95.354,85.108 95.203,84.925L73.747,54.931C73.698,54.85 73.643,54.773 73.599,54.689C73.512,54.52 73.449,54.34 73.413,54.154C73.287,53.495 73.511,52.8 73.999,52.34C74.137,52.209 74.293,52.1 74.463,52.014C74.632,51.928 74.813,51.867 74.999,51.833C75.092,51.816 75.187,51.812 75.281,51.802L94.5,51.068L94.836,44.128L94.87,43.846C94.935,43.603 94.939,43.536 95.056,43.312C95.365,42.716 95.971,42.31 96.639,42.252C96.892,42.229 96.955,42.251 97.204,42.283L108.248,44.514L113.475,37.956L113.659,37.754C113.846,37.6 113.887,37.55 114.103,37.437C114.264,37.352 114.437,37.29 114.616,37.252C114.705,37.233 114.796,37.227 114.886,37.215C114.977,37.215 115.068,37.215 115.16,37.215ZM110.59,47.927C110.427,48.105 110.394,48.159 110.198,48.301C109.903,48.512 109.552,48.64 109.19,48.668C108.949,48.686 108.888,48.665 108.65,48.634L98.678,46.619L98.367,53.072L98.331,53.363C98.261,53.614 98.257,53.683 98.133,53.914C97.899,54.348 97.505,54.684 97.04,54.846C96.793,54.932 96.723,54.925 96.465,54.954L79.105,55.617L97.726,81.648L146.016,74.953C146.255,74.937 146.317,74.92 146.556,74.953C146.914,75.002 147.256,75.15 147.536,75.378C147.724,75.53 147.754,75.586 147.905,75.772L159.234,91.815C159.284,91.899 159.341,91.979 159.385,92.066C159.517,92.328 159.589,92.619 159.596,92.913C159.602,93.175 159.574,93.239 159.522,93.493L157.452,100.849L159.039,119.403L165.249,112.038L184.076,67.504L175.351,65.605C175.123,65.539 175.06,65.534 174.848,65.422C174.37,65.17 174.01,64.723 173.865,64.202C173.801,63.971 173.809,63.909 173.793,63.671L173.793,55.525L144.413,51.827L144.198,51.787L143.99,51.725L115.686,41.532C113.987,43.664 112.289,45.795 110.59,47.927Z" style="fill-rule:nonzero;"/>
            <g id="Shadow-Color" transform="matrix(1,0,0,1,-4.9269,9.219)">
                <path d="M162.472,61.321L167.169,58.727L179.369,55.78L173.188,65.488L165.59,65.488L166.777,67.213L163.737,81.909L151.809,65.488L102.59,72.54L94.884,47.31L108.697,56.877L114.165,44.603L123.977,49.731L129.639,41.82L162.472,61.321Z" style="fill:rgb(103,61,27);"/>
            </g>
            <g id="Streaks" transform="matrix(1,0,0,1,-4.9269,9.219)">
                <path d="M114.928,71.215L110.659,66.119L120.558,71.18C120.558,71.18 116.849,71.199 114.928,71.215L114.945,71.236C113.188,71.234 113.682,71.225 114.928,71.215ZM127.861,69.143L120.558,60.757L133.491,69.108C133.491,69.108 129.781,69.127 127.861,69.143L127.879,69.164C126.122,69.162 126.615,69.153 127.861,69.143ZM151.936,65.835L135.851,54.481L146.642,67.032L151.936,65.835Z"/>
            </g>
        </g>
    </g>
    <g id="Eyes" transform="matrix(1,0,0,1,92.7305,19.3602)">
        <g id="Eye-Shadow" transform="matrix(2.04278,0,0,2.04278,-195.605,-86.6891)">
            <path d="M89.621,99.292C98.051,97.006 106.25,97.157 114.386,97.98C127.04,97.855 139.16,99.536 150,105.532C142.403,111.277 133.899,117.896 122.952,117.055L112.819,110.957C108.567,113.982 103.628,114.463 98.188,113.085C93.223,108.734 90.733,104.094 89.621,99.292Z" style="fill:rgb(237,209,183);"/>
        </g>
        <g id="Open" transform="matrix(2.04278,0,0,2.04278,-16.2416,-37.6369)">
            <g id="Left-Eye" transform="matrix(1,0,0,1,-87.8036,-23.5792)">
                <ellipse cx="104.819" cy="105.532" rx="4.358" ry="7.552"/>
            </g>
            <g id="Right-Eye" transform="matrix(1,0,0,1,-69.6703,-22.267)">
                <ellipse cx="104.819" cy="105.532" rx="4.358" ry="7.552"/>
            </g>
        </g>
        <g id="Worried" transform="matrix(2.04278,0,0,2.04278,-205.669,-77.1856)">
            <path d="M124.737,91.605L124.737,86.755L141.804,90.431L146.87,96.489C137.791,91.95 130.073,92.584 124.737,91.605ZM116.318,91.031C110.189,91.501 103.855,92.587 96.528,94.478L101.365,90.049L116.491,86.755L116.318,91.031Z"/>
        </g>
    </g>
    <g id="Right-Arm" transform="matrix(2.03071,0.0707824,-0.0733707,2.10496,-100.485,-96.1923)">
        <g transform="matrix(0.18477,0.982782,-0.982782,0.18477,273.848,-60.1723)">
            <path d="M177.752,149.917C177.854,149.435 177.975,148.959 178.128,148.491C178.443,147.529 178.875,146.605 179.416,145.749C179.875,145.023 180.411,144.346 181.013,143.733C181.441,143.296 181.901,142.891 182.387,142.521C185.17,140.406 188.74,139.474 192.206,139.64C192.776,139.667 193.344,139.724 193.908,139.81C194.68,139.928 195.443,140.102 196.19,140.332C197.403,140.706 198.572,141.23 199.649,141.904C200.96,142.723 202.131,143.767 203.071,144.996C203.67,145.78 204.174,146.637 204.567,147.543C205.026,148.602 205.333,149.725 205.489,150.869C205.566,151.432 205.603,151.999 205.615,152.567C205.727,169.538 205.616,186.509 205.616,203.481C205.613,203.769 205.603,204.056 205.578,204.343C205.527,204.921 205.424,205.495 205.27,206.054C205.118,206.601 204.917,207.135 204.67,207.646C204.477,208.044 204.257,208.428 204.011,208.796C203.801,209.11 203.573,209.411 203.33,209.699C202.05,211.211 200.352,212.319 198.528,213.064C197.357,213.541 196.129,213.875 194.883,214.087C193.926,214.25 192.957,214.34 191.987,214.362C191.26,214.379 190.531,214.357 189.805,214.296C189.273,214.251 188.743,214.185 188.217,214.098C187.786,214.026 187.357,213.939 186.932,213.837C184.523,213.257 182.181,212.167 180.401,210.412C180.137,210.151 179.887,209.877 179.652,209.59C179.342,209.211 179.06,208.81 178.809,208.389C178.464,207.809 178.181,207.192 177.967,206.552C177.746,205.893 177.599,205.21 177.526,204.519C177.495,204.226 177.48,203.934 177.473,203.64C177.466,202.912 177.471,202.185 177.471,201.457C177.414,201.424 177.359,201.387 177.303,201.352L177.142,201.246C176.882,201.064 176.629,200.874 176.391,200.663C175.794,200.136 175.283,199.513 174.881,198.826C173.933,197.203 173.614,195.241 174.011,193.403C174.126,192.869 174.301,192.347 174.531,191.852C174.799,191.278 175.141,190.74 175.549,190.256C176.126,189.569 176.83,188.998 177.614,188.562L177.471,152.755C177.474,152.369 177.486,151.984 177.516,151.6C177.546,151.221 177.593,150.845 177.651,150.469C177.682,150.285 177.716,150.101 177.752,149.917ZM185.89,151.724C185.837,152.038 185.811,152.353 185.805,152.671L185.805,152.765L185.96,191.69L185.949,192.016C185.936,192.124 185.928,192.232 185.912,192.34C185.879,192.554 185.829,192.766 185.763,192.974C185.564,193.595 185.219,194.167 184.76,194.632C184.557,194.839 184.494,194.878 184.268,195.059L184.18,195.119L184.364,195.265L184.601,195.487C184.674,195.567 184.75,195.644 184.82,195.727C184.96,195.893 185.087,196.069 185.199,196.254C185.481,196.717 185.67,197.235 185.754,197.77C185.799,198.055 185.793,198.129 185.805,198.417C185.805,200.131 185.733,201.847 185.807,203.559C185.816,203.697 185.839,203.834 185.89,203.963C185.977,204.183 186.134,204.369 186.305,204.528C186.609,204.811 186.973,205.027 187.346,205.205C187.503,205.28 187.664,205.348 187.826,205.41C188.761,205.769 189.764,205.949 190.76,206.011C191.532,206.059 192.309,206.034 193.075,205.933C193.701,205.851 194.322,205.718 194.921,205.517C195.097,205.458 195.271,205.394 195.441,205.322C195.578,205.265 195.713,205.203 195.845,205.136C196.192,204.961 196.529,204.752 196.81,204.483C196.975,204.325 197.126,204.142 197.207,203.927C197.259,203.788 197.278,203.642 197.282,203.494C197.43,186.529 197.618,169.559 197.28,152.597C197.262,152.058 197.18,151.523 196.986,151.018C196.907,150.81 196.809,150.609 196.694,150.417C196.113,149.446 195.122,148.793 194.075,148.41C193.917,148.353 193.757,148.301 193.595,148.254C193.38,148.193 193.163,148.141 192.944,148.099C192.67,148.046 192.393,148.008 192.116,147.984C191.759,147.954 191.4,147.947 191.042,147.963C190.593,147.984 190.145,148.043 189.707,148.142C188.559,148.4 187.416,148.949 186.678,149.893C186.578,150.02 186.486,150.154 186.403,150.294C186.201,150.635 186.06,151.004 185.961,151.388C185.934,151.499 185.911,151.611 185.89,151.724Z" style="fill-rule:nonzero;"/>
        </g>
        <g transform="matrix(0.18477,0.982782,-0.982782,0.18477,273.848,-60.1723)">
            <path d="M201.449,152.76C201.449,140.995 181.638,140.6 181.638,152.76L181.793,191.707C176.548,191.707 177.003,198.417 181.638,198.417L181.638,203.462C181.638,212.48 201.449,212.414 201.449,203.462L201.449,152.76Z" style="fill:rgb(255,230,207);"/>
        </g>
        <g transform="matrix(0.18477,0.982782,-0.982782,0.18477,273.848,-60.1723)">
            <path d="M180.507,150.48C180.577,150.15 180.658,149.823 180.759,149.5C180.978,148.796 181.277,148.116 181.653,147.481C181.924,147.023 182.234,146.589 182.58,146.184C183.308,145.33 184.189,144.612 185.159,144.048C186.008,143.554 186.924,143.177 187.87,142.913C188.572,142.717 189.29,142.582 190.014,142.507C190.569,142.449 191.128,142.425 191.686,142.436C194.416,142.489 197.187,143.359 199.305,145.115C199.57,145.336 199.825,145.569 200.066,145.816C200.402,146.159 200.712,146.526 200.993,146.915C201.386,147.46 201.719,148.046 201.986,148.662C202.344,149.486 202.581,150.36 202.703,151.25C202.764,151.699 202.793,152.151 202.802,152.605C202.915,169.599 202.95,186.596 202.802,203.591C202.786,204.211 202.702,204.825 202.525,205.421C202.413,205.802 202.265,206.172 202.086,206.526C201.963,206.77 201.824,207.006 201.672,207.233C200.691,208.702 199.187,209.738 197.576,210.414C196.562,210.839 195.494,211.13 194.412,211.314C193.589,211.454 192.757,211.531 191.923,211.551C191.254,211.566 190.583,211.544 189.916,211.483C189.42,211.437 188.926,211.37 188.435,211.281C188.031,211.207 187.63,211.118 187.233,211.012C186.919,210.928 186.609,210.834 186.301,210.729C184.46,210.099 182.694,209.045 181.546,207.44C181.365,207.186 181.2,206.92 181.054,206.643C180.85,206.256 180.685,205.849 180.561,205.429C180.374,204.791 180.29,204.132 180.284,203.468L180.284,199.61C180.171,199.581 180.172,199.581 180.06,199.549C179.939,199.512 179.939,199.512 179.818,199.471C179.584,199.385 179.356,199.288 179.136,199.17C178.648,198.907 178.208,198.559 177.842,198.144C177.493,197.748 177.213,197.294 177.014,196.806C176.581,195.749 176.535,194.54 176.911,193.459C177.024,193.136 177.173,192.826 177.356,192.537C177.633,192.101 177.986,191.717 178.396,191.402C178.993,190.944 179.699,190.642 180.434,190.488L180.284,152.758C180.286,152.445 180.296,152.132 180.32,151.82C180.344,151.517 180.381,151.217 180.428,150.917C180.452,150.771 180.479,150.626 180.507,150.48ZM183.12,151.238C183.035,151.743 182.995,152.25 182.992,152.761L183.148,191.701C183.144,191.76 183.144,191.819 183.137,191.877C183.122,191.994 183.092,192.109 183.047,192.218C182.89,192.603 182.556,192.9 182.156,193.011C181.975,193.062 181.792,193.059 181.607,193.065C181.52,193.069 181.433,193.075 181.346,193.083C180.933,193.131 180.522,193.235 180.169,193.463C180.009,193.567 179.865,193.695 179.746,193.844C179.672,193.937 179.608,194.037 179.555,194.143C179.187,194.885 179.368,195.836 179.94,196.424C180.229,196.721 180.607,196.911 181.01,196.999C181.222,197.045 181.437,197.06 181.653,197.063L181.829,197.076C181.886,197.088 181.944,197.097 182.001,197.112C182.114,197.144 182.223,197.19 182.324,197.249C182.629,197.429 182.856,197.727 182.947,198.069C182.987,198.221 182.982,198.261 182.992,198.417C182.992,200.126 182.978,201.835 182.993,203.544C183.003,203.924 183.052,204.3 183.16,204.664C183.219,204.868 183.296,205.066 183.388,205.257C183.887,206.293 184.815,207.052 185.814,207.582C185.974,207.667 186.136,207.746 186.301,207.82C187.451,208.341 188.701,208.632 189.953,208.765C191.147,208.891 192.358,208.873 193.546,208.708C194.505,208.574 195.454,208.344 196.355,207.987C196.556,207.907 196.755,207.821 196.95,207.727C198.074,207.189 199.146,206.386 199.7,205.241C199.792,205.051 199.868,204.854 199.928,204.652C200.035,204.291 200.084,203.919 200.094,203.543C200.242,186.576 200.207,169.608 200.094,152.64C200.087,152.261 200.06,151.884 200.004,151.509C199.902,150.837 199.711,150.179 199.422,149.563C199.26,149.219 199.069,148.888 198.851,148.576C197.867,147.17 196.37,146.203 194.756,145.669C194.175,145.477 193.576,145.339 192.97,145.252C192.527,145.189 192.081,145.153 191.633,145.144C191.29,145.137 190.945,145.147 190.602,145.173C188.622,145.322 186.62,146.024 185.156,147.401C184.952,147.593 184.759,147.798 184.58,148.013C184.319,148.329 184.086,148.669 183.888,149.027C183.56,149.62 183.333,150.257 183.183,150.917C183.161,151.024 183.14,151.131 183.12,151.238Z" style="fill-rule:nonzero;"/>
        </g>
        <g transform="matrix(0.18477,0.982782,-0.982782,0.18477,273.848,-60.1723)">
            <path d="M200.015,151.966C200.015,146.486 192.446,145.18 192.446,145.18C190.008,166.283 197.247,187.604 190.368,191.486C196.142,196.572 191.717,206.911 189.615,208.621C193.66,209.943 200.065,207.57 200.061,203.862L200.015,151.966Z" style="fill:rgb(237,209,183);"/>
        </g>
        <g transform="matrix(0.18477,0.982782,-0.982782,0.18477,273.848,-60.1723)">
            <path d="M201.449,152.76C201.449,140.995 181.638,140.6 181.638,152.76L181.705,169.602L201.248,168.7L201.449,152.76Z" style="fill:rgb(47,110,146);"/>
        </g>
        <g transform="matrix(0.18477,0.982782,-0.982782,0.18477,273.848,-60.1723)">
            <path d="M180.507,150.48C180.577,150.15 180.658,149.823 180.759,149.5C180.978,148.796 181.277,148.116 181.653,147.481C181.924,147.023 182.234,146.589 182.58,146.184C183.308,145.33 184.189,144.612 185.159,144.048C186.008,143.554 186.924,143.177 187.87,142.913C188.572,142.717 189.29,142.582 190.014,142.507C190.569,142.449 191.128,142.425 191.686,142.436C192.115,142.444 192.544,142.473 192.971,142.522C195.603,142.823 198.196,143.906 200.066,145.816C200.402,146.159 200.712,146.526 200.993,146.915C201.386,147.46 201.719,148.046 201.986,148.662C202.364,149.532 202.606,150.456 202.722,151.397C202.777,151.851 202.8,152.307 202.803,152.764L202.602,168.717C202.595,168.839 202.583,168.955 202.55,169.074C202.438,169.463 202.15,169.788 201.778,169.946C201.667,169.993 201.55,170.026 201.43,170.042C201.39,170.047 201.35,170.049 201.31,170.053L181.768,170.955C181.727,170.955 181.687,170.956 181.646,170.955C181.525,170.949 181.405,170.928 181.289,170.89C180.901,170.765 180.584,170.463 180.439,170.082C180.396,169.968 180.368,169.849 180.357,169.728C180.353,169.688 180.353,169.648 180.351,169.607L180.284,152.758C180.286,152.445 180.296,152.132 180.32,151.82C180.344,151.517 180.381,151.217 180.428,150.917C180.452,150.771 180.479,150.626 180.507,150.48ZM183.12,151.238C183.035,151.743 182.995,152.25 182.992,152.761L183.054,168.184L199.91,167.406L200.095,152.756C200.092,152.338 200.066,151.922 200.004,151.509C199.897,150.805 199.692,150.116 199.38,149.476C199.228,149.163 199.051,148.862 198.851,148.576C197.867,147.17 196.37,146.203 194.756,145.669C194.175,145.477 193.576,145.339 192.97,145.252C192.527,145.189 192.081,145.153 191.633,145.144C191.29,145.137 190.945,145.147 190.603,145.173C188.652,145.32 186.683,146.001 185.224,147.337C185.018,147.527 184.822,147.728 184.64,147.942C184.375,148.253 184.138,148.589 183.935,148.944C183.601,149.528 183.365,150.158 183.207,150.812C183.175,150.953 183.146,151.095 183.12,151.238Z" style="fill-rule:nonzero;"/>
        </g>
        <g transform="matrix(0.18477,0.982782,-0.982782,0.18477,273.848,-60.1723)">
            <path d="M200.303,153.133C200.669,142.726 186.233,144.683 186.266,146.741C192.041,154.074 192.769,159.373 192.414,167.688L199.797,167.512L200.303,153.133Z" style="fill:rgb(45,86,109);"/>
        </g>
    </g>
    <g transform="matrix(-1.83667,-0.0390503,-0.0487118,2.29108,233.701,-32.2348)">
        <path d="M63.497,100.639C63.497,100.639 63.583,112.141 47.741,112.225C38.698,112.273 31.35,105.392 29.341,98.325C45.802,102.086 57.435,102.491 63.497,100.639Z"/>
    </g>
    <g transform="matrix(1.84814,0.0392942,-0.0346737,1.63082,112.93,193.367)">
        <path d="M2.844,7.138C15.097,6.911 16.954,6.731 28.218,4.346C28.993,3.457 29.608,2.182 29.895,1.107C18.137,5.052 14.28,5.312 1.977,4.669C2.103,5.387 2.362,6.539 2.844,7.138Z" style="fill:white;"/>
    </g>
    <g transform="matrix(1.99045,0.0423198,-0.0423198,1.99045,111.52,187.374)">
        <path d="M8.312,13.567C15.832,13.536 17.406,13.33 24.212,11.375C21.442,14.599 14.132,17.504 8.312,13.567Z" style="fill:white;"/>
    </g>
</svg>
