<?xml version="1.0" encoding="UTF-8" standalone="no"?>
<!DOCTYPE svg PUBLIC "-//W3C//DTD SVG 1.1//EN" "http://www.w3.org/Graphics/SVG/1.1/DTD/svg11.dtd">
<svg width="100%" height="100%" viewBox="0 0 32 32" version="1.1" xmlns="http://www.w3.org/2000/svg" xmlns:xlink="http://www.w3.org/1999/xlink" xml:space="preserve" style="fill-rule:evenodd;clip-rule:evenodd;stroke-linejoin:round;stroke-miterlimit:1.41421;">
    <g transform="matrix(0.853556,0,0,0.853556,2.32014,2.36802)">
        <path d="M19.594,20.696C19.56,20.727 19.526,20.757 19.492,20.787C18.565,21.603 17.497,22.255 16.347,22.705C15.111,23.188 13.786,23.436 12.46,23.436C11.133,23.436 9.808,23.188 8.572,22.705C7.422,22.255 6.354,21.603 5.427,20.787C4.518,19.986 3.745,19.031 3.154,17.973C2.65,17.067 2.28,16.087 2.058,15.074C1.803,13.907 1.746,12.699 1.888,11.513C2.021,10.404 2.328,9.317 2.798,8.304C3.265,7.297 3.89,6.367 4.644,5.554C5.584,4.539 6.719,3.709 7.975,3.127C8.911,2.693 9.91,2.397 10.931,2.25C11.396,2.183 11.863,2.15 12.332,2.141C12.46,2.14 12.46,2.14 12.587,2.141C13.057,2.15 13.524,2.183 13.988,2.25C15.009,2.397 16.009,2.693 16.945,3.127C18.2,3.709 19.335,4.539 20.276,5.554C21.029,6.367 21.655,7.297 22.121,8.304C22.609,9.356 22.922,10.488 23.046,11.641C23.174,12.828 23.102,14.035 22.833,15.199C22.609,16.167 22.249,17.104 21.765,17.973C21.411,18.607 20.992,19.204 20.517,19.753C21.13,20.341 21.745,20.928 22.315,21.558L22.481,21.392C22.871,21.002 23.505,21.002 23.895,21.392L29.582,27.079C29.972,27.469 29.972,28.103 29.582,28.493L28.168,29.907C27.777,30.297 27.144,30.297 26.753,29.907L21.067,24.22C20.676,23.83 20.676,23.196 21.067,22.806L21.395,22.478C20.788,21.891 20.171,21.312 19.594,20.696ZM12.347,3.441C11.935,3.448 11.525,3.478 11.117,3.537C10.22,3.666 9.343,3.925 8.522,4.306C7.419,4.817 6.423,5.547 5.597,6.438C4.936,7.151 4.387,7.967 3.978,8.85C3.122,10.696 2.894,12.809 3.328,14.796C3.522,15.685 3.847,16.545 4.29,17.34C4.808,18.27 5.488,19.108 6.286,19.811C7.1,20.527 8.037,21.1 9.046,21.494C10.131,21.919 11.295,22.136 12.46,22.136C13.625,22.136 14.788,21.919 15.874,21.494C16.883,21.1 17.82,20.527 18.633,19.811C19.432,19.108 20.111,18.27 20.629,17.34C21.054,16.578 21.37,15.756 21.566,14.906C22.033,12.887 21.814,10.731 20.942,8.85C20.533,7.967 19.983,7.151 19.322,6.438C18.496,5.547 17.5,4.817 16.398,4.306C15.576,3.925 14.699,3.666 13.803,3.537C13.395,3.478 12.984,3.448 12.572,3.441C12.459,3.44 12.46,3.44 12.347,3.441Z"/>
    </g>
</svg>
