<?xml version="1.0" encoding="UTF-8" standalone="no"?>
<!DOCTYPE svg PUBLIC "-//W3C//DTD SVG 1.1//EN" "http://www.w3.org/Graphics/SVG/1.1/DTD/svg11.dtd">
<svg width="100%" height="100%" viewBox="0 0 32 32" version="1.1" xmlns="http://www.w3.org/2000/svg" xmlns:xlink="http://www.w3.org/1999/xlink" xml:space="preserve" style="fill-rule:evenodd;clip-rule:evenodd;stroke-linejoin:round;stroke-miterlimit:1.41421;">
    <g transform="matrix(1.0378,0,0,1.0378,-0.604772,-0.604768)">
        <path d="M17.682,30.019L14.318,30.019L13.199,26.868C12.687,26.737 12.184,26.568 11.696,26.365C11.214,26.165 10.747,25.93 10.298,25.665L7.277,27.103L4.897,24.723L6.335,21.702C6.174,21.43 6.024,21.15 5.887,20.865C5.568,20.204 5.315,19.512 5.132,18.801L1.981,17.682L1.981,14.318L5.132,13.199C5.326,12.444 5.599,11.711 5.946,11.013C6.067,10.77 6.197,10.531 6.335,10.298L4.897,7.277L7.277,4.897L10.298,6.335C10.649,6.128 11.011,5.939 11.382,5.771C11.968,5.506 12.577,5.292 13.199,5.132L14.318,1.981L17.682,1.981L18.801,5.132C19.424,5.292 20.032,5.506 20.618,5.771C20.989,5.939 21.352,6.128 21.702,6.335L24.723,4.897L27.103,7.276L25.665,10.297C25.78,10.492 25.889,10.69 25.992,10.891C26.369,11.625 26.663,12.401 26.868,13.199L30.019,14.318L30.019,17.682L26.868,18.801C26.685,19.512 26.432,20.204 26.114,20.865C25.976,21.15 25.826,21.43 25.665,21.703L27.103,24.723L24.723,27.103L21.702,25.665C21.254,25.93 20.786,26.165 20.304,26.365C19.816,26.568 19.313,26.737 18.801,26.868L17.682,30.019ZM16,9.97C19.328,9.97 22.03,12.672 22.03,16C22.03,19.328 19.328,22.03 16,22.03C12.672,22.03 9.97,19.328 9.97,16C9.97,12.672 12.672,9.97 16,9.97Z" style="fill:none;stroke:white;stroke-width:1.25px;"/>
    </g>
</svg>
